<svg width="478" height="60" viewBox="0 0 478 60" fill="none" xmlns="http://www.w3.org/2000/svg">
<path d="M53.75 5.32812C53.5 5.48438 53.2344 5.57812 52.9531 5.60938C52.6719 5.64062 52.375 5.6875 52.0625 5.75C51.7812 5.78125 51.5156 5.84375 51.2656 5.9375C51.0156 6.03125 50.8281 6.20312 50.7031 6.45312C50.3906 6.14062 50.0469 5.875 49.6719 5.65625C49.2969 5.4375 48.9219 5.20312 48.5469 4.95312C48.2344 5.04688 47.9219 5.17188 47.6094 5.32812C47.2969 5.48438 46.9844 5.5625 46.6719 5.5625C46.4531 5.5625 46.2344 5.48438 46.0156 5.32812C45.7656 5.51562 45.4688 5.67188 45.125 5.79688C44.8125 5.89062 44.4688 5.98438 44.0938 6.07812C43.75 6.17188 43.4219 6.29688 43.1094 6.45312C42.8281 6.60938 42.625 6.84375 42.5 7.15625C42.4375 7 42.2812 6.95312 42.0312 7.01562C41.8125 7.07812 41.6875 7 41.6562 6.78125C40.6562 7.125 39.6406 7.42188 38.6094 7.67188C37.5781 7.92188 36.5469 8.1875 35.5156 8.46875C34.4844 8.75 33.4688 9.0625 32.4688 9.40625C31.4688 9.75 30.5 10.1719 29.5625 10.6719C29.5312 10.7031 29.5156 10.75 29.5156 10.8125C29.5156 11.125 29.5625 11.4219 29.6562 11.7031C29.75 11.9844 29.8281 12.25 29.8906 12.5C29.3281 14.4062 28.9531 16.3438 28.7656 18.3125C28.5781 20.2812 28.3281 22.2188 28.0156 24.125V24.3125C28.0156 24.4688 28.0781 24.5938 28.2031 24.6875C28.3281 24.75 28.3906 24.875 28.3906 25.0625L28.3438 25.1562C28.1875 25.25 28.0781 25.3906 28.0156 25.5781C27.9531 25.7344 27.9219 25.9062 27.9219 26.0938C27.9219 26.2188 27.9531 26.4062 28.0156 26.6562C27.4844 28.4375 27.125 30.25 26.9375 32.0938C26.7812 33.9375 26.5781 35.7812 26.3281 37.625L25.9062 40.7188C25.8438 40.9062 25.7812 41.0938 25.7188 41.2812C25.6875 41.4375 25.6719 41.6094 25.6719 41.7969C25.6719 42.7969 25.7344 43.7812 25.8594 44.75C26.0156 45.6875 26.0625 46.6562 26 47.6562C26.2812 48.0938 26.4219 48.5156 26.4219 48.9219C26.4219 49.0781 26.4062 49.2344 26.375 49.3906C26.375 49.5469 26.3594 49.7031 26.3281 49.8594C26.7344 50.2656 27.2031 50.5469 27.7344 50.7031C28.2969 50.8906 28.7969 51.1719 29.2344 51.5469V51.7344C29.2344 52.0469 29.1875 52.3438 29.0938 52.625C29 52.9375 28.9219 53.25 28.8594 53.5625C28.7969 53.8125 28.7188 54.1719 28.625 54.6406C28.5625 55.1094 28.4688 55.4219 28.3438 55.5781C28.1875 55.7969 27.9531 55.9844 27.6406 56.1406C27.3594 56.3281 27.0781 56.4219 26.7969 56.4219C26.7031 56.4219 26.5625 56.375 26.375 56.2812C26.2188 56.1875 26.0938 56.1094 26 56.0469C25.8438 56.0469 25.6406 56.125 25.3906 56.2812C25.1406 56.4375 24.8906 56.5156 24.6406 56.5156C24.5156 56.5156 24.4062 56.5 24.3125 56.4688C24.2188 56.4688 24.1094 56.4375 23.9844 56.375C23.8594 56.0625 23.6719 55.7812 23.4219 55.5312C23.2031 55.3125 22.9375 55.0938 22.625 54.875C22.6562 54.4375 22.5781 54.1094 22.3906 53.8906C22.2031 53.6719 22.0156 53.3906 21.8281 53.0469C21.7656 52.6094 21.7031 52.1094 21.6406 51.5469C21.6094 50.9844 21.375 50.5781 20.9375 50.3281C21.0938 50.1094 21.1719 49.8125 21.1719 49.4375C21.1719 49.2812 21.1406 49.1094 21.0781 48.9219C21.0469 48.7344 20.9531 48.5938 20.7969 48.5V48.4062C20.7656 48.25 20.8125 48.1406 20.9375 48.0781C21.0938 47.9844 21.1719 47.8594 21.1719 47.7031V47.5156C20.9531 46.5156 20.8438 45.4688 20.8438 44.375C20.8438 43.3438 20.875 42.3281 20.9375 41.3281C21 40.2969 21 39.2656 20.9375 38.2344C21.125 38.0781 21.2656 37.8281 21.3594 37.4844C21.4844 37.1406 21.5781 36.7656 21.6406 36.3594C21.7031 35.9531 21.7344 35.5625 21.7344 35.1875C21.7656 34.7812 21.7969 34.4531 21.8281 34.2031C21.9844 32.4219 22.2344 30.6719 22.5781 28.9531C22.9219 27.2031 23.125 25.4219 23.1875 23.6094C23.3438 23.3594 23.4375 23.0312 23.4688 22.625C23.5 22.2188 23.5156 21.7969 23.5156 21.3594C23.5156 20.8906 23.5469 20.4375 23.6094 20C23.6719 19.5625 23.7969 19.1875 23.9844 18.875C23.9844 18 24.0625 17.125 24.2188 16.25C24.375 15.3438 24.4531 14.4375 24.4531 13.5312C24.4531 13.0938 24.4062 12.6406 24.3125 12.1719C24 12.0469 23.7188 11.9844 23.4688 11.9844C23.125 11.9844 22.7656 12.0625 22.3906 12.2188C22.0469 12.3438 21.7969 12.5469 21.6406 12.8281C20.9531 12.8594 20.2812 12.9688 19.625 13.1562C18.9688 13.3438 18.3125 13.4375 17.6562 13.4375H17.1875C17.0625 13.4375 16.9219 13.4219 16.7656 13.3906C16.5469 13.4844 16.3125 13.5625 16.0625 13.625C15.8438 13.6875 15.75 13.875 15.7812 14.1875C14.8125 14.2812 13.8594 14.4844 12.9219 14.7969C12.0156 15.1094 11.1094 15.4531 10.2031 15.8281C9.29688 16.1719 8.39062 16.5 7.48438 16.8125C6.54688 17.125 5.59375 17.3281 4.625 17.4219C4.28125 17.5781 4.0625 17.9062 3.96875 18.4062C3.28125 18.3438 2.70312 18.1719 2.23438 17.8906C1.76562 17.6094 1.21875 17.3438 0.59375 17.0938C0.40625 16.4375 0.3125 15.8125 0.3125 15.2188C0.3125 14.4375 0.46875 13.6875 0.78125 12.9688C1.09375 12.25 1.59375 11.7188 2.28125 11.375C2.4375 11.4062 2.57812 11.4375 2.70312 11.4688C2.82812 11.4688 2.96875 11.4688 3.125 11.4688C3.625 11.4688 4.125 11.375 4.625 11.1875C5.125 11 5.64062 10.9062 6.17188 10.9062C6.32812 10.9062 6.5 10.9531 6.6875 11.0469C6.90625 10.9219 7.1875 10.8281 7.53125 10.7656C7.84375 10.6719 8.14062 10.5938 8.42188 10.5312C8.73438 10.4375 9.01562 10.3125 9.26562 10.1562C9.51562 10 9.67188 9.78125 9.73438 9.5C9.89062 9.625 10.0625 9.70312 10.25 9.73438C10.4375 9.76562 10.625 9.78125 10.8125 9.78125C11.2188 9.78125 11.6406 9.70312 12.0781 9.54688C12.5156 9.39062 12.8594 9.14062 13.1094 8.79688C13.3281 9.04688 13.6406 9.17188 14.0469 9.17188C14.4844 9.17188 14.9062 9.0625 15.3125 8.84375C15.75 8.59375 16.1719 8.46875 16.5781 8.46875C16.8906 8.46875 17.125 8.57812 17.2812 8.79688C17.625 8.51562 18.0312 8.29688 18.5 8.14062C18.9688 7.98438 19.4375 7.84375 19.9062 7.71875C20.4062 7.59375 20.8594 7.45312 21.2656 7.29688C21.7031 7.14062 22.0469 6.92188 22.2969 6.64062C22.4531 6.67188 22.7031 6.6875 23.0469 6.6875C23.5781 6.6875 24.0781 6.625 24.5469 6.5C25.0469 6.34375 25.5469 6.20312 26.0469 6.07812L27.0312 5.98438C27.2812 5.95312 27.5 5.875 27.6875 5.75C27.9062 5.625 28.125 5.51562 28.3438 5.42188C28.5625 5.32812 28.7812 5.25 29 5.1875C29.25 5.125 29.5469 5.10938 29.8906 5.14062C30.6406 4.73438 31.4375 4.42188 32.2812 4.20312C33.125 3.98438 33.9844 3.79688 34.8594 3.64062C35.7344 3.45312 36.5938 3.25 37.4375 3.03125C38.2812 2.78125 39.0781 2.42188 39.8281 1.95312H39.9688C40.5938 1.95312 41.2031 1.84375 41.7969 1.625C42.4219 1.40625 43 1.10938 43.5312 0.734375C43.625 0.765625 43.7188 0.78125 43.8125 0.78125H44.1406C45.0156 0.78125 45.8594 0.65625 46.6719 0.40625C47.5156 0.15625 48.3906 0.03125 49.2969 0.03125C49.8281 0.03125 50.25 0.109375 50.5625 0.265625C50.875 0.390625 51.1562 0.5625 51.4062 0.78125C51.6562 0.96875 51.9219 1.15625 52.2031 1.34375C52.4844 1.53125 52.8438 1.67188 53.2812 1.76562C53.5625 2.29688 53.7031 2.875 53.7031 3.5C53.7031 4.09375 53.7188 4.70312 53.75 5.32812ZM68.7031 28.1094C68.5781 28.4219 68.4531 28.7188 68.3281 29C68.2031 29.2812 68.1094 29.5938 68.0469 29.9375C67.8281 30.0938 67.5781 30.2188 67.2969 30.3125C67.0469 30.375 66.7812 30.4531 66.5 30.5469C66.2188 30.6094 65.9531 30.7031 65.7031 30.8281C65.4844 30.9219 65.3125 31.0781 65.1875 31.2969C65.0938 31.7656 65.0469 32.2031 65.0469 32.6094C65.0469 33.1406 65.1406 33.5938 65.3281 33.9688C65.2344 34.25 65.1719 34.5469 65.1406 34.8594C65.1094 35.1719 65.0938 35.4688 65.0938 35.75C65.0938 36.7812 65.2188 37.8125 65.4688 38.8438C65.7188 39.8438 65.8594 40.8594 65.8906 41.8906C65.8906 42.0469 65.875 42.2188 65.8438 42.4062C65.8125 42.5938 65.7969 42.7656 65.7969 42.9219C65.7969 43.5781 66.0469 44.0156 66.5469 44.2344C66.4531 44.3906 66.4062 44.5312 66.4062 44.6562C66.4062 44.9062 66.4375 45.125 66.5 45.3125C66.5625 45.5 66.5781 45.7031 66.5469 45.9219C66.7031 46.2344 66.8594 46.5156 67.0156 46.7656C67.1719 46.9844 67.2812 47.2656 67.3438 47.6094C67.125 48.0469 66.8594 48.4531 66.5469 48.8281C66.2344 49.1719 66.0156 49.6094 65.8906 50.1406C65.7656 50.1094 65.625 50.0938 65.4688 50.0938C65.25 50.0938 65.0781 50.1406 64.9531 50.2344C64.8281 50.3281 64.7188 50.4375 64.625 50.5625C64.5625 50.7188 64.4844 50.8594 64.3906 50.9844C64.2969 51.1406 64.1719 51.25 64.0156 51.3125H63.875C63.7188 51.3438 63.5781 51.3281 63.4531 51.2656C63.3594 51.2344 63.2656 51.2188 63.1719 51.2188C63.1094 51.2188 62.9844 51.25 62.7969 51.3125C62.5469 51 62.375 50.625 62.2812 50.1875C62.1875 49.7812 62.1406 49.375 62.1406 48.9688C62.1406 48.5312 62.2031 48.1406 62.3281 47.7969C61.9844 47.5156 61.7656 47.0938 61.6719 46.5312C61.6094 45.9688 61.5312 45.5 61.4375 45.125C61.1875 43.9688 60.8906 42.8438 60.5469 41.75C60.2344 40.6562 60.0469 39.5312 59.9844 38.375C59.9531 37.9375 59.9375 37.5156 59.9375 37.1094V34.6719C59.9375 34.2656 59.9531 33.875 59.9844 33.5C59.9844 33.2188 60 32.9531 60.0312 32.7031C60.0938 32.4219 60.125 32.1406 60.125 31.8594C60.125 31.4844 60 31.125 59.75 30.7812C57.5312 30.875 55.4219 31.2812 53.4219 32C51.4531 32.6875 49.4844 33.5156 47.5156 34.4844C47.3906 35.2031 47.3125 35.9062 47.2812 36.5938C47.25 37.2812 47.2344 37.9844 47.2344 38.7031V40.7656C47.2344 41.5469 47.2656 42.2031 47.3281 42.7344C47.4844 43.6406 47.9375 44.3438 48.6875 44.8438C49.4688 45.3125 50.25 45.6719 51.0312 45.9219C51 46.3906 50.9062 46.7969 50.75 47.1406C50.5938 47.4531 50.3906 47.75 50.1406 48.0312C49.9219 48.2812 49.6719 48.5312 49.3906 48.7812C49.1094 49.0312 48.8281 49.3125 48.5469 49.625C48.2969 49.4688 48.0469 49.3594 47.7969 49.2969C47.5469 49.2344 47.2812 49.2031 47 49.2031C46.7188 49.1719 46.4375 49.1406 46.1562 49.1094C45.875 49.0781 45.5938 49.0156 45.3125 48.9219L44.2812 47.5156C43.9375 47.0469 43.5625 46.5781 43.1562 46.1094V45.6875C43.1562 44.8438 43 44.0312 42.6875 43.25C42.375 42.4688 42.1406 41.6719 41.9844 40.8594C42.0781 40.5781 42.1406 40.2969 42.1719 40.0156C42.2031 39.7344 42.2188 39.4375 42.2188 39.125C42.2188 38.5 42.1875 37.8906 42.125 37.2969C42.0938 36.7031 42.1094 36.1094 42.1719 35.5156H41.9375C41.6562 35.5156 41.3594 35.5938 41.0469 35.75C40.7344 35.875 40.4219 36.0312 40.1094 36.2188C39.8281 36.375 39.5469 36.5312 39.2656 36.6875C39.0156 36.8125 38.7969 36.875 38.6094 36.875C38.5156 36.875 38.4219 36.8594 38.3281 36.8281C38.2344 36.7969 38.125 36.7812 38 36.7812C37.8438 36.7812 37.6562 36.8438 37.4375 36.9688C37.2188 37.0938 36.9844 37.2344 36.7344 37.3906C36.4531 37.5156 36.1719 37.6406 35.8906 37.7656C35.6094 37.8906 35.3281 37.9531 35.0469 37.9531C34.6094 37.9531 34.1719 37.7656 33.7344 37.3906C33.6719 37.1406 33.6562 36.9062 33.6875 36.6875C33.6875 36.4688 33.6875 36.2344 33.6875 35.9844C33.6875 35.7344 33.6406 35.4688 33.5469 35.1875C33.7656 34.7812 34.0625 34.4688 34.4375 34.25C34.7812 34 35.1562 33.7812 35.5625 33.5938C35.9375 33.375 36.3281 33.1719 36.7344 32.9844C37.1406 32.7656 37.4844 32.4844 37.7656 32.1406H38.0469C38.4844 32.1406 38.875 32.0469 39.2188 31.8594C39.5938 31.6719 40.0156 31.5938 40.4844 31.625C40.6406 31.5625 40.75 31.3281 40.8125 30.9219L41 30.9688C41.6875 30.9688 42.2969 30.7344 42.8281 30.2656C43.1719 28.3281 43.4531 26.375 43.6719 24.4062C43.8906 22.4375 44 20.4688 44 18.5C44 18.3125 43.9375 18.125 43.8125 17.9375C43.75 17.6875 43.7188 17.4531 43.7188 17.2344V16.5312C43.7188 16.1875 43.7344 15.8281 43.7656 15.4531C43.7969 15.0781 43.875 14.7031 44 14.3281C44.3125 14.1406 44.6406 14.0469 44.9844 14.0469C45.3906 14.0469 45.7812 14.1094 46.1562 14.2344C46.5625 14.3281 46.9531 14.4062 47.3281 14.4688C47.6094 14.75 47.8125 15.0625 47.9375 15.4062C48.0938 15.75 48.1875 16.1094 48.2188 16.4844C48.25 16.8281 48.25 17.1875 48.2188 17.5625C48.2188 17.9062 48.2188 18.25 48.2188 18.5938C48.2188 19.2812 48.2969 19.9531 48.4531 20.6094C48.6094 21.2656 48.6875 21.9062 48.6875 22.5312C48.6875 22.6875 48.625 22.8125 48.5 22.9062C48.4062 22.9688 48.3594 23.1719 48.3594 23.5156C48.3594 23.8594 48.3906 24.2188 48.4531 24.5938C48.5156 24.9688 48.5469 25.3438 48.5469 25.7188C48.5469 26.1562 48.4844 26.6094 48.3594 27.0781C48.2344 27.5469 48.125 28 48.0312 28.4375C49.9062 28.2812 51.8281 28.0469 53.7969 27.7344C55.7656 27.4219 57.6406 26.9219 59.4219 26.2344C59.4531 26.1719 59.4688 26.0781 59.4688 25.9531C59.4688 25.7656 59.4531 25.5781 59.4219 25.3906C59.3906 25.2031 59.375 25 59.375 24.7812C59.375 24.4062 59.5 24.1094 59.75 23.8906C59.5938 23.0156 59.4844 22.1406 59.4219 21.2656C59.3594 20.3906 59.3281 19.5156 59.3281 18.6406V15.9688C59.3281 15.0938 59.3125 14.2188 59.2812 13.3438C59.5312 13.1875 59.7969 13.1094 60.0781 13.1094C60.4219 13.1094 60.7344 13.2031 61.0156 13.3906C61.3281 13.5469 61.6875 13.625 62.0938 13.625C62.375 13.625 62.6094 13.5781 62.7969 13.4844C63.1406 13.7969 63.375 14.2031 63.5 14.7031C63.625 15.2031 63.7344 15.7188 63.8281 16.25C63.9219 16.7812 64.0156 17.3125 64.1094 17.8438C64.2344 18.3438 64.4688 18.75 64.8125 19.0625L64.8594 19.2031C64.8594 19.3281 64.7969 19.4219 64.6719 19.4844C64.5469 19.5469 64.4844 19.6719 64.4844 19.8594V20.0469C64.6094 20.5469 64.7031 21.0625 64.7656 21.5938C64.8281 22.125 64.875 22.6719 64.9062 23.2344C64.9688 23.7656 65.0469 24.2969 65.1406 24.8281C65.2344 25.3281 65.4062 25.7969 65.6562 26.2344C65.8125 26.2031 66.0156 26.1875 66.2656 26.1875C66.8906 26.1875 67.375 26.4062 67.7188 26.8438C68.0938 27.25 68.4219 27.6719 68.7031 28.1094ZM101.375 20.1875V20.375C101.156 20.4375 101.047 20.5938 101.047 20.8438C100.703 21 100.344 21.125 99.9688 21.2188C99.5938 21.2812 99.2344 21.3906 98.8906 21.5469C98.5469 21.5156 98.1875 21.5 97.8125 21.5C97.4688 21.4688 97.125 21.4531 96.7812 21.4531C95.8438 21.4531 94.9062 21.4844 93.9688 21.5469C93.0312 21.6094 92.0938 21.6094 91.1562 21.5469C90.7188 21.7969 90.2344 22 89.7031 22.1562C89.2031 22.2812 88.7188 22.3438 88.25 22.3438C87.875 22.3438 87.5469 22.2969 87.2656 22.2031C86.5156 22.5781 85.6875 22.8906 84.7812 23.1406C83.9062 23.3906 83.0156 23.6406 82.1094 23.8906C81.2031 24.1094 80.3281 24.375 79.4844 24.6875C78.6719 24.9688 77.9531 25.375 77.3281 25.9062C77.2656 26.3438 77.2188 26.7812 77.1875 27.2188C77.1562 27.625 77.1406 28.0312 77.1406 28.4375C77.1406 28.875 77.1562 29.2812 77.1875 29.6562C77.25 30.0312 77.3594 30.4062 77.5156 30.7812C77.6719 30.8438 77.8438 30.8906 78.0312 30.9219C78.25 30.9531 78.4375 30.9688 78.5938 30.9688C78.75 30.9688 78.9062 30.9531 79.0625 30.9219C79.2188 30.8594 79.3281 30.75 79.3906 30.5938C79.8594 30.5312 80.3281 30.5156 80.7969 30.5469C81.2656 30.5469 81.7344 30.5469 82.2031 30.5469C82.6719 30.5469 83.125 30.5312 83.5625 30.5C84.0312 30.4688 84.4844 30.3906 84.9219 30.2656C85.4219 30.1406 85.9062 30.0625 86.375 30.0312C86.875 30 87.3594 29.9688 87.8281 29.9375C88.2969 29.9062 88.7812 29.8594 89.2812 29.7969C89.7812 29.7031 90.2969 29.5312 90.8281 29.2812C91.2344 29.4375 91.6406 29.5156 92.0469 29.5156C92.4844 29.5156 92.9062 29.5469 93.3125 29.6094C93.5312 29.7656 93.7031 29.9375 93.8281 30.125C93.9844 30.3125 94.0625 30.5312 94.0625 30.7812C94.0625 31.2188 93.9062 31.6562 93.5938 32.0938C93.2812 32.5312 93.0312 32.9375 92.8438 33.3125H92.3281C91.5781 33.3125 90.8438 33.4219 90.125 33.6406C89.4375 33.8281 88.7344 34.0625 88.0156 34.3438C87.3281 34.5938 86.625 34.8281 85.9062 35.0469C85.2188 35.2344 84.5 35.3281 83.75 35.3281C83.625 35.3281 83.5469 35.4062 83.5156 35.5625C83.5156 35.6875 83.4844 35.7812 83.4219 35.8438C83.2656 35.8125 83.0312 35.7969 82.7188 35.7969C82 35.7969 81.3125 35.875 80.6562 36.0312C80 36.1875 79.3281 36.2656 78.6406 36.2656C78.4531 36.2656 78.2656 36.2656 78.0781 36.2656C77.8906 36.2344 77.7031 36.2031 77.5156 36.1719C77.3594 36.4219 77.1562 36.5938 76.9062 36.6875C76.6562 36.75 76.4219 36.875 76.2031 37.0625C76.1094 37.3438 76.0469 37.6875 76.0156 38.0938C76.0156 38.5 76 38.9219 75.9688 39.3594C75.9688 39.7656 75.9375 40.1562 75.875 40.5312C75.8125 40.9062 75.6875 41.2031 75.5 41.4219C75.5312 41.5781 75.6562 41.6406 75.875 41.6094C76.0938 41.5469 76.2031 41.6406 76.2031 41.8906C76.2031 42.1719 76.1719 42.4688 76.1094 42.7812C76.0469 43.0938 76.0156 43.4062 76.0156 43.7188C76.0156 44.3125 76.0781 44.9688 76.2031 45.6875C76.3594 46.375 76.5781 47.0156 76.8594 47.6094C77.1719 48.2031 77.5781 48.7031 78.0781 49.1094C78.5781 49.4844 79.2031 49.6719 79.9531 49.6719C80.4531 49.6719 80.9219 49.5781 81.3594 49.3906C81.7969 49.2031 82.1562 48.8906 82.4375 48.4531L82.6719 48.4062C82.7969 48.4062 82.9062 48.4219 83 48.4531C83.125 48.4844 83.25 48.5 83.375 48.5C83.5625 48.5 83.7969 48.3906 84.0781 48.1719C84.3906 47.9219 84.7188 47.6406 85.0625 47.3281C85.4375 47.0156 85.8125 46.7188 86.1875 46.4375C86.5625 46.125 86.9219 45.9062 87.2656 45.7812C87.4844 45.3438 87.6875 44.9062 87.875 44.4688C88.0938 44.0312 88.4062 43.6875 88.8125 43.4375V42.0781C89.125 41.7344 89.4531 41.4219 89.7969 41.1406C90.1719 40.8594 90.4531 40.5 90.6406 40.0625C90.7969 40.125 90.9375 40.1719 91.0625 40.2031C91.2188 40.2344 91.375 40.25 91.5312 40.25C91.6875 40.25 91.8438 40.2344 92 40.2031C92.1875 40.1719 92.3594 40.125 92.5156 40.0625C92.7656 40.4062 92.9531 40.7969 93.0781 41.2344C93.2344 41.6406 93.4219 42.0312 93.6406 42.4062C93.3594 42.9688 93.0312 43.6406 92.6562 44.4219C92.2812 45.2031 91.875 45.9844 91.4375 46.7656C91 47.5469 90.5312 48.2969 90.0312 49.0156C89.5625 49.7031 89.0938 50.2344 88.625 50.6094C88.5312 50.7031 88.3281 50.8125 88.0156 50.9375C87.6719 51.1875 87.3594 51.4219 87.0781 51.6406C86.7969 51.8906 86.5312 52.1719 86.2812 52.4844C85.375 52.7656 84.5 53.1406 83.6562 53.6094C82.8438 54.0781 82.0312 54.5312 81.2188 54.9688C80.8438 54.875 80.4375 54.8281 80 54.8281C79.625 54.8281 79.25 54.8438 78.875 54.875C78.5 54.9375 78.0938 54.9688 77.6562 54.9688C77.5312 54.8125 77.3438 54.7031 77.0938 54.6406C76.875 54.6094 76.7969 54.4531 76.8594 54.1719C75.7969 54.1094 74.9375 53.8125 74.2812 53.2812C73.625 52.7812 73.0625 52.1562 72.5938 51.4062C72.1562 50.6562 71.7969 49.8438 71.5156 48.9688C71.2344 48.0938 70.9375 47.25 70.625 46.4375V46.2969C70.625 46.1406 70.6875 46.0469 70.8125 46.0156C70.9375 45.9844 71 45.8906 71 45.7344C71 45.6719 70.9844 45.625 70.9531 45.5938C70.8594 45.25 70.7812 44.9531 70.7188 44.7031C70.6562 44.4531 70.625 44.1562 70.625 43.8125C70.625 43.3125 70.6562 42.8281 70.7188 42.3594C70.7812 41.8594 70.8125 41.3594 70.8125 40.8594C70.8125 40.3594 70.75 39.9219 70.625 39.5469C70.75 39.3906 70.8594 39.1875 70.9531 38.9375C71.0156 38.6562 71.0625 38.375 71.0938 38.0938C71.125 37.8125 71.1406 37.5312 71.1406 37.25C71.1719 36.9688 71.2188 36.7188 71.2812 36.5C71.1562 36.1562 71.0469 35.8594 70.9531 35.6094C70.8594 35.3281 70.8125 35 70.8125 34.625V34.2969C71.125 33.7656 71.3906 33.2188 71.6094 32.6562C71.8281 32.0938 72.0625 31.5156 72.3125 30.9219V30.7812C72.3125 29.875 72.2812 28.9688 72.2188 28.0625C72.1562 27.1562 72.125 26.25 72.125 25.3438V24.4531C72.125 24.1406 72.1406 23.8438 72.1719 23.5625C72.4219 23.4375 72.6094 23.2656 72.7344 23.0469C72.8594 22.8281 73.0469 22.6562 73.2969 22.5312H74.8438L75.125 22.0625C75.2188 21.9062 75.2812 21.7344 75.3125 21.5469C75.6562 21.4531 75.9844 21.3281 76.2969 21.1719C76.6406 20.9844 76.9531 20.7969 77.2344 20.6094C77.6719 20.3594 78.0625 20.1406 78.4062 19.9531C78.7812 19.7344 79.1406 19.5625 79.4844 19.4375C79.8594 19.2812 80.25 19.1562 80.6562 19.0625C81.0625 18.9688 81.5312 18.8906 82.0625 18.8281C82.3125 18.8281 82.4688 18.7812 82.5312 18.6875C82.625 18.5938 82.75 18.4844 82.9062 18.3594C83.2812 18.4219 83.6562 18.4844 84.0312 18.5469C84.4062 18.5781 84.7812 18.5938 85.1562 18.5938C85.9062 18.5938 86.6094 18.4531 87.2656 18.1719C88.2031 18.1719 89.125 18.1562 90.0312 18.125C90.9688 18.0938 91.9062 18.0781 92.8438 18.0781C93.6562 18.0781 94.4688 18.1094 95.2812 18.1719C96.0938 18.2344 96.8906 18.3438 97.6719 18.5C97.9531 18.4062 98.2656 18.3594 98.6094 18.3594C98.9844 18.3594 99.3594 18.4062 99.7344 18.5C100.141 18.5625 100.531 18.5625 100.906 18.5C100.938 18.8438 101.016 19.1406 101.141 19.3906C101.297 19.6094 101.375 19.875 101.375 20.1875ZM169.391 22.4844C169.391 22.9844 169.297 23.5 169.109 24.0312C168.953 24.5625 168.75 25.0469 168.5 25.4844C168.094 25.5469 167.719 25.6875 167.375 25.9062C167.062 26.125 166.812 26.2656 166.625 26.3281C166.219 26.3906 165.734 26.4219 165.172 26.4219C164.641 26.3906 164.156 26.3906 163.719 26.4219C162.875 26.4844 162.031 26.5781 161.188 26.7031C160.375 26.8281 159.562 26.9844 158.75 27.1719C158.688 27.1719 158.625 27.1875 158.562 27.2188C158.5 27.2188 158.469 27.25 158.469 27.3125C158.469 27.375 158.484 27.4375 158.516 27.5C158.547 27.5625 158.562 27.625 158.562 27.6875C158.562 27.7812 158.469 27.8281 158.281 27.8281C157.938 27.8281 157.703 27.7188 157.578 27.5C156.578 27.75 155.578 28.0156 154.578 28.2969C153.578 28.5469 152.578 28.7969 151.578 29.0469C151.078 29.1406 150.578 29.2344 150.078 29.3281C149.609 29.4219 149.125 29.5469 148.625 29.7031C148.375 29.7656 148.125 29.875 147.875 30.0312L147.125 30.5C146.969 30.4688 146.828 30.4531 146.703 30.4531C146.578 30.4219 146.453 30.4062 146.328 30.4062C145.797 30.4062 145.234 30.5156 144.641 30.7344C144.047 30.9219 143.531 31.1875 143.094 31.5312H142.766C142.453 31.5312 142.234 31.4844 142.109 31.3906C141.828 31.3594 141.656 31.4531 141.594 31.6719C141.531 31.8594 141.422 32.0312 141.266 32.1875C140.203 32.2812 139.156 32.4688 138.125 32.75C137.094 33.0312 136.078 33.3438 135.078 33.6875C134.078 34 133.062 34.3281 132.031 34.6719C131.031 34.9844 130.016 35.2344 128.984 35.4219C128.859 36.0469 128.797 36.7656 128.797 37.5781C128.797 38.2031 128.844 38.9219 128.938 39.7344C129.062 40.5469 129.312 41.2344 129.688 41.7969V41.8906C129.688 42.0469 129.625 42.1562 129.5 42.2188C129.375 42.2812 129.312 42.3906 129.312 42.5469C129.312 43.3594 129.391 44.125 129.547 44.8438C129.734 45.5625 129.922 46.2656 130.109 46.9531C130.297 47.6406 130.469 48.3281 130.625 49.0156C130.812 49.7031 130.906 50.4062 130.906 51.125C130.906 51.3125 130.891 51.4844 130.859 51.6406C130.859 51.8281 130.844 52.0156 130.812 52.2031C130.906 52.4844 131.062 52.7188 131.281 52.9062C131.5 53.0938 131.688 53.3125 131.844 53.5625C131.875 53.7188 131.891 53.8594 131.891 53.9844V54.4531C131.891 54.9844 131.828 55.4531 131.703 55.8594C131.578 56.2656 131.422 56.6406 131.234 56.9844C131.047 57.3594 130.844 57.7188 130.625 58.0625C130.406 58.4375 130.203 58.8438 130.016 59.2812C129.703 59.3438 129.453 59.375 129.266 59.375C128.797 59.375 128.406 59.25 128.094 59C127.812 58.75 127.562 58.4375 127.344 58.0625C127.125 57.7188 126.906 57.3594 126.688 56.9844C126.5 56.6094 126.266 56.2969 125.984 56.0469C126.016 55.8906 126.031 55.75 126.031 55.625C126.062 55.5 126.078 55.3594 126.078 55.2031C126.078 54.5781 125.969 53.9688 125.75 53.375C125.562 52.7812 125.344 52.2188 125.094 51.6875C125.062 50.625 124.953 49.5781 124.766 48.5469C124.578 47.5156 124.312 46.5 123.969 45.5C124.031 45.125 124.078 44.7656 124.109 44.4219C124.141 44.0469 124.156 43.6875 124.156 43.3438C124.156 42.4375 124.109 41.5312 124.016 40.625C123.922 39.7188 123.906 38.8125 123.969 37.9062C123.875 37.75 123.781 37.625 123.688 37.5312C123.594 37.4062 123.516 37.2656 123.453 37.1094H123.266C122.797 37.1094 122.344 37.1562 121.906 37.25C121.469 37.3125 121.031 37.3438 120.594 37.3438C120.438 37.3438 120.297 37.3438 120.172 37.3438C120.047 37.3125 119.906 37.2812 119.75 37.25C119.406 36.9062 119.141 36.5156 118.953 36.0781C118.766 35.6406 118.672 35.1875 118.672 34.7188C118.672 34.0312 118.859 33.4062 119.234 32.8438C120.016 32.6562 120.781 32.4375 121.531 32.1875C122.312 31.9062 123.062 31.5781 123.781 31.2031C123.875 30.7344 123.922 30.2656 123.922 29.7969C123.953 29.3281 124.125 28.8906 124.438 28.4844C124.344 28.2344 124.188 28.0156 123.969 27.8281C123.781 27.6094 123.688 27.3594 123.688 27.0781C123.688 26.9219 123.719 26.7188 123.781 26.4688C124.094 26.125 124.312 25.6875 124.438 25.1562C124.562 24.625 124.672 24.0625 124.766 23.4688C124.859 22.875 124.953 22.2812 125.047 21.6875C125.172 21.0938 125.375 20.5625 125.656 20.0938C125.594 19.8438 125.547 19.5781 125.516 19.2969C125.484 18.9844 125.469 18.7031 125.469 18.4531C125.469 18.0781 125.484 17.7031 125.516 17.3281C125.578 16.9219 125.672 16.5469 125.797 16.2031C125.453 15.7969 125.172 15.3281 124.953 14.7969C124.734 14.2344 124.625 13.6875 124.625 13.1562C124.625 12.125 125.125 11.4688 126.125 11.1875C126.094 11.0625 126.062 10.9531 126.031 10.8594C126.031 10.7656 126.031 10.6719 126.031 10.5781C126.031 10.2969 126.109 10.0312 126.266 9.78125C126.422 9.53125 126.547 9.28125 126.641 9.03125C126.484 8.625 126.406 8.28125 126.406 8C126.406 7.75 126.453 7.53125 126.547 7.34375C126.641 7.125 126.719 6.89062 126.781 6.64062C126.875 6.32812 126.938 6.04688 126.969 5.79688C127.031 5.54688 127.125 5.32812 127.25 5.14062C127.375 4.95312 127.531 4.8125 127.719 4.71875C127.938 4.625 128.266 4.57812 128.703 4.57812C129.391 4.57812 130.047 4.79688 130.672 5.23438C131.328 5.64062 131.828 6.10938 132.172 6.64062C132.516 6.60938 132.812 6.54688 133.062 6.45312C133.344 6.32812 133.594 6.21875 133.812 6.125C134.062 6.03125 134.312 5.95312 134.562 5.89062C134.844 5.79688 135.172 5.76562 135.547 5.79688C135.641 5.57812 135.797 5.4375 136.016 5.375C136.266 5.28125 136.516 5.21875 136.766 5.1875C137.016 5.125 137.25 5.04688 137.469 4.95312C137.688 4.85938 137.828 4.6875 137.891 4.4375C138.016 4.53125 138.156 4.57812 138.312 4.57812C138.469 4.57812 138.625 4.5625 138.781 4.53125C138.938 4.46875 139.109 4.4375 139.297 4.4375C139.484 4.4375 139.641 4.5 139.766 4.625C140.578 4.1875 141.438 3.875 142.344 3.6875C143.281 3.46875 144.203 3.34375 145.109 3.3125C147.266 2.125 149.531 1.3125 151.906 0.875C154.312 0.4375 156.719 0.21875 159.125 0.21875C159.469 0.21875 159.797 0.21875 160.109 0.21875C160.453 0.1875 160.781 0.203125 161.094 0.265625C161.438 0.328125 161.812 0.4375 162.219 0.59375C162.656 0.75 163.078 0.9375 163.484 1.15625C163.922 1.375 164.328 1.625 164.703 1.90625C165.078 2.15625 165.391 2.39062 165.641 2.60938C165.891 3.17188 166.016 3.71875 166.016 4.25C166.016 4.5 166 4.75 165.969 5C165.938 5.21875 165.922 5.45312 165.922 5.70312C165.922 6.07812 166 6.5 166.156 6.96875C166.062 6.9375 165.906 6.92188 165.688 6.92188C165.406 6.92188 165.172 6.98438 164.984 7.10938C164.797 7.23438 164.625 7.375 164.469 7.53125C164.312 7.6875 164.156 7.82812 164 7.95312C163.875 8.07812 163.75 8.14062 163.625 8.14062C163.375 8.14062 163.156 8.09375 162.969 8C162.812 7.90625 162.641 7.8125 162.453 7.71875C162.297 7.59375 162.125 7.5 161.938 7.4375C161.75 7.34375 161.531 7.3125 161.281 7.34375V7.15625C161.281 6.8125 161.172 6.59375 160.953 6.5C160.734 6.375 160.562 6.20312 160.438 5.98438C159.969 5.95312 159.5 5.89062 159.031 5.79688C158.594 5.70312 158.141 5.65625 157.672 5.65625C157.047 5.65625 156.562 5.875 156.219 6.3125C156.062 6.25 155.922 6.17188 155.797 6.07812C155.703 5.98438 155.562 5.95312 155.375 5.98438H155.234C153.547 5.98438 151.891 6.17188 150.266 6.54688C148.641 6.89062 147.031 7.32812 145.438 7.85938C143.844 8.35938 142.25 8.90625 140.656 9.5C139.062 10.0938 137.469 10.6094 135.875 11.0469C135.5 11.5469 135.109 11.9219 134.703 12.1719C134.297 12.3906 133.891 12.5781 133.484 12.7344C133.109 12.8906 132.734 13.0469 132.359 13.2031C131.984 13.3594 131.656 13.6094 131.375 13.9531C131.125 14.2969 130.922 14.7812 130.766 15.4062C130.641 16 130.609 16.8281 130.672 17.8906C130.516 18.0781 130.422 18.2812 130.391 18.5C130.359 18.7188 130.328 18.9375 130.297 19.1562C130.266 19.3438 130.219 19.5312 130.156 19.7188C130.094 19.9062 129.984 20.0781 129.828 20.2344C129.891 20.5469 129.938 20.8594 129.969 21.1719C130 21.4844 130.016 21.7969 130.016 22.1094C130.016 23.4219 129.797 24.7031 129.359 25.9531C129.516 26.2031 129.594 26.4844 129.594 26.7969C129.594 27.1406 129.547 27.4531 129.453 27.7344C129.359 28.0156 129.312 28.3281 129.312 28.6719C129.312 29.0156 129.375 29.2969 129.5 29.5156C129.688 29.5156 129.797 29.5781 129.828 29.7031H130.109C130.672 29.7031 131.156 29.5625 131.562 29.2812C131.969 29 132.406 28.8594 132.875 28.8594C132.969 28.8594 133.078 28.8906 133.203 28.9531C133.328 29.0156 133.438 29.0469 133.531 29.0469C133.75 29.0469 133.844 28.9688 133.812 28.8125C133.781 28.6562 133.859 28.5469 134.047 28.4844L135.734 28.2031C136.797 28.0156 137.797 27.7969 138.734 27.5469C139.703 27.2656 140.656 26.8594 141.594 26.3281C141.812 26.4219 142.062 26.4688 142.344 26.4688C142.594 26.4688 142.859 26.4375 143.141 26.375C143.422 26.2812 143.688 26.2344 143.938 26.2344C144.156 26.2344 144.328 26.2656 144.453 26.3281C144.641 26.2031 144.875 26.1094 145.156 26.0469C145.438 25.9531 145.594 25.7656 145.625 25.4844H145.719C145.844 25.4844 145.938 25.5156 146 25.5781C146.062 25.6406 146.156 25.6719 146.281 25.6719H146.469C147.125 25.3594 147.719 25.125 148.25 24.9688C149.125 24.75 150.062 24.5625 151.062 24.4062C152.062 24.2188 152.953 23.9062 153.734 23.4688C154.641 23.4688 155.516 23.3281 156.359 23.0469C157.234 22.7344 158.109 22.5781 158.984 22.5781C159.391 22.5781 159.766 22.6406 160.109 22.7656C160.422 22.5469 160.781 22.3906 161.188 22.2969C161.625 22.2031 161.984 22.0312 162.266 21.7812C162.453 21.8125 162.641 21.8438 162.828 21.875C163.047 21.875 163.266 21.875 163.484 21.875C164.422 21.875 165.312 21.75 166.156 21.5C167.031 21.2188 167.922 21.0156 168.828 20.8906C169.047 21.1406 169.188 21.4062 169.25 21.6875C169.344 21.9375 169.391 22.2031 169.391 22.4844ZM191 22.8594C190.812 23.1406 190.703 23.4531 190.672 23.7969C190.641 24.1406 190.625 24.4531 190.625 24.7344C190.625 25.1094 190.625 25.4844 190.625 25.8594C190.656 26.2031 190.672 26.5469 190.672 26.8906V27.5938C190.609 27.8125 190.516 28.0312 190.391 28.25C190.266 28.4688 190.172 28.6875 190.109 28.9062C189.672 30.0625 189.453 31.2188 189.453 32.375V32.4688C189.297 32.8438 189.141 33.1875 188.984 33.5C188.859 33.8125 188.734 34.125 188.609 34.4375C188.484 34.7188 188.391 35.0312 188.328 35.375C188.266 35.6875 188.25 36.0625 188.281 36.5C187.844 37.5938 187.266 38.5938 186.547 39.5C185.828 40.375 185.125 41.2812 184.438 42.2188C183.781 42.4688 183.172 42.7969 182.609 43.2031C182.078 43.6094 181.562 44.0625 181.062 44.5625C180.094 44.875 179.141 45.2344 178.203 45.6406C177.266 46.0469 176.422 46.5938 175.672 47.2812C175.078 47.3438 174.484 47.4375 173.891 47.5625C173.297 47.6875 172.719 47.875 172.156 48.125H171.594C171.312 48.125 171.109 48.0625 170.984 47.9375C170.578 48.1562 170.156 48.3125 169.719 48.4062C169.281 48.4688 168.844 48.5 168.406 48.5C167.844 48.5 167.281 48.4688 166.719 48.4062C166.188 48.3125 165.641 48.2188 165.078 48.125C164.766 47.6875 164.328 47.3594 163.766 47.1406C163.203 46.8906 162.703 46.6562 162.266 46.4375C161.359 45.1875 160.703 43.9844 160.297 42.8281C159.891 41.6406 159.469 40.3125 159.031 38.8438C159.094 38.4062 159.203 37.9844 159.359 37.5781C159.516 37.1406 159.578 36.6719 159.547 36.1719C160.109 34.5469 160.844 33.0781 161.75 31.7656C162.688 30.4219 163.75 29.1406 164.938 27.9219C164.938 27.7344 164.969 27.5781 165.031 27.4531C165.125 27.3281 165.141 27.1406 165.078 26.8906C165.109 26.9219 165.172 26.9375 165.266 26.9375C165.516 26.9375 165.672 26.875 165.734 26.75C165.797 26.5938 165.812 26.4219 165.781 26.2344C166.906 25.5156 167.922 24.6875 168.828 23.75C169.766 22.8125 170.828 22.0312 172.016 21.4062C172.109 21.125 172.266 20.8906 172.484 20.7031C172.703 20.5156 172.875 20.2969 173 20.0469C174 19.7656 174.906 19.3438 175.719 18.7812C176.531 18.2188 177.391 17.7188 178.297 17.2812C178.797 17 179.266 16.8125 179.703 16.7188C180.172 16.5938 180.672 16.4688 181.203 16.3438C181.391 16.2812 181.562 16.2344 181.719 16.2031C181.875 16.1719 182.047 16.1562 182.234 16.1562C182.797 16.1562 183.344 16.2656 183.875 16.4844C184.406 16.6719 184.953 16.7656 185.516 16.7656C185.672 16.7656 185.797 16.7656 185.891 16.7656C186.016 16.7344 186.141 16.7031 186.266 16.6719C186.797 17.3281 187.469 17.8281 188.281 18.1719C188.469 18.6406 188.688 19.0469 188.938 19.3906C189.219 19.7344 189.5 20.0781 189.781 20.4219C190.062 20.7344 190.312 21.0938 190.531 21.5C190.781 21.875 190.938 22.3281 191 22.8594ZM186.312 25.2969C186.312 25.1406 186.297 25 186.266 24.875C185.953 24.7812 185.656 24.6562 185.375 24.5C185.094 24.3438 184.781 24.2656 184.438 24.2656C184.219 24.2656 184 24.3125 183.781 24.4062C183.75 24.1875 183.656 24.0312 183.5 23.9375C183.375 23.8438 183.219 23.7656 183.031 23.7031C182.875 23.6094 182.703 23.5469 182.516 23.5156C182.359 23.4531 182.219 23.3594 182.094 23.2344C182 22.9844 181.891 22.7344 181.766 22.4844C181.672 22.2031 181.484 22 181.203 21.875C180.922 22.1562 180.594 22.3906 180.219 22.5781C179.844 22.7344 179.453 22.8906 179.047 23.0469C178.672 23.2031 178.297 23.3906 177.922 23.6094C177.578 23.8281 177.281 24.0938 177.031 24.4062H176.188C176 24.75 175.734 25.0156 175.391 25.2031C175.047 25.3594 174.75 25.5938 174.5 25.9062C174 26.1562 173.531 26.4688 173.094 26.8438C172.688 27.1875 172.281 27.5625 171.875 27.9688C171.469 28.3438 171.062 28.7344 170.656 29.1406C170.281 29.5469 169.875 29.9219 169.438 30.2656C169.031 31.1406 168.578 31.9062 168.078 32.5625C167.609 33.1875 167.156 33.8281 166.719 34.4844C166.312 35.1406 165.953 35.8594 165.641 36.6406C165.359 37.3906 165.219 38.3281 165.219 39.4531V39.9219C165.219 40.0781 165.234 40.2344 165.266 40.3906C165.672 40.8281 166 41.2969 166.25 41.7969C166.531 42.2969 166.984 42.6562 167.609 42.875C168.234 43.125 168.891 43.2344 169.578 43.2031C170.297 43.1719 170.984 43.25 171.641 43.4375C173.141 43.1562 174.578 42.7031 175.953 42.0781C177.359 41.4219 178.688 40.6406 179.938 39.7344C180.125 39.5781 180.344 39.4219 180.594 39.2656C180.844 39.0781 181.047 38.8906 181.203 38.7031C181.359 38.5469 181.484 38.375 181.578 38.1875C181.703 38 181.828 37.8281 181.953 37.6719C182.203 37.2656 182.484 36.8594 182.797 36.4531C183.109 36.0469 183.438 35.6719 183.781 35.3281C183.938 34.6406 184.141 33.9844 184.391 33.3594C184.641 32.7031 184.891 32.0625 185.141 31.4375C185.391 30.8125 185.594 30.1719 185.75 29.5156C185.938 28.8594 186.031 28.1719 186.031 27.4531C186.031 27.2969 186.016 27.125 185.984 26.9375C185.984 26.75 185.969 26.5781 185.938 26.4219C186.188 26.0781 186.312 25.7031 186.312 25.2969ZM223.906 22.8594C223.719 23.1406 223.609 23.4531 223.578 23.7969C223.547 24.1406 223.531 24.4531 223.531 24.7344C223.531 25.1094 223.531 25.4844 223.531 25.8594C223.562 26.2031 223.578 26.5469 223.578 26.8906V27.5938C223.516 27.8125 223.422 28.0312 223.297 28.25C223.172 28.4688 223.078 28.6875 223.016 28.9062C222.578 30.0625 222.359 31.2188 222.359 32.375V32.4688C222.203 32.8438 222.047 33.1875 221.891 33.5C221.766 33.8125 221.641 34.125 221.516 34.4375C221.391 34.7188 221.297 35.0312 221.234 35.375C221.172 35.6875 221.156 36.0625 221.188 36.5C220.75 37.5938 220.172 38.5938 219.453 39.5C218.734 40.375 218.031 41.2812 217.344 42.2188C216.688 42.4688 216.078 42.7969 215.516 43.2031C214.984 43.6094 214.469 44.0625 213.969 44.5625C213 44.875 212.047 45.2344 211.109 45.6406C210.172 46.0469 209.328 46.5938 208.578 47.2812C207.984 47.3438 207.391 47.4375 206.797 47.5625C206.203 47.6875 205.625 47.875 205.062 48.125H204.5C204.219 48.125 204.016 48.0625 203.891 47.9375C203.484 48.1562 203.062 48.3125 202.625 48.4062C202.188 48.4688 201.75 48.5 201.312 48.5C200.75 48.5 200.188 48.4688 199.625 48.4062C199.094 48.3125 198.547 48.2188 197.984 48.125C197.672 47.6875 197.234 47.3594 196.672 47.1406C196.109 46.8906 195.609 46.6562 195.172 46.4375C194.266 45.1875 193.609 43.9844 193.203 42.8281C192.797 41.6406 192.375 40.3125 191.938 38.8438C192 38.4062 192.109 37.9844 192.266 37.5781C192.422 37.1406 192.484 36.6719 192.453 36.1719C193.016 34.5469 193.75 33.0781 194.656 31.7656C195.594 30.4219 196.656 29.1406 197.844 27.9219C197.844 27.7344 197.875 27.5781 197.938 27.4531C198.031 27.3281 198.047 27.1406 197.984 26.8906C198.016 26.9219 198.078 26.9375 198.172 26.9375C198.422 26.9375 198.578 26.875 198.641 26.75C198.703 26.5938 198.719 26.4219 198.688 26.2344C199.812 25.5156 200.828 24.6875 201.734 23.75C202.672 22.8125 203.734 22.0312 204.922 21.4062C205.016 21.125 205.172 20.8906 205.391 20.7031C205.609 20.5156 205.781 20.2969 205.906 20.0469C206.906 19.7656 207.812 19.3438 208.625 18.7812C209.438 18.2188 210.297 17.7188 211.203 17.2812C211.703 17 212.172 16.8125 212.609 16.7188C213.078 16.5938 213.578 16.4688 214.109 16.3438C214.297 16.2812 214.469 16.2344 214.625 16.2031C214.781 16.1719 214.953 16.1562 215.141 16.1562C215.703 16.1562 216.25 16.2656 216.781 16.4844C217.312 16.6719 217.859 16.7656 218.422 16.7656C218.578 16.7656 218.703 16.7656 218.797 16.7656C218.922 16.7344 219.047 16.7031 219.172 16.6719C219.703 17.3281 220.375 17.8281 221.188 18.1719C221.375 18.6406 221.594 19.0469 221.844 19.3906C222.125 19.7344 222.406 20.0781 222.688 20.4219C222.969 20.7344 223.219 21.0938 223.438 21.5C223.688 21.875 223.844 22.3281 223.906 22.8594ZM219.219 25.2969C219.219 25.1406 219.203 25 219.172 24.875C218.859 24.7812 218.562 24.6562 218.281 24.5C218 24.3438 217.688 24.2656 217.344 24.2656C217.125 24.2656 216.906 24.3125 216.688 24.4062C216.656 24.1875 216.562 24.0312 216.406 23.9375C216.281 23.8438 216.125 23.7656 215.938 23.7031C215.781 23.6094 215.609 23.5469 215.422 23.5156C215.266 23.4531 215.125 23.3594 215 23.2344C214.906 22.9844 214.797 22.7344 214.672 22.4844C214.578 22.2031 214.391 22 214.109 21.875C213.828 22.1562 213.5 22.3906 213.125 22.5781C212.75 22.7344 212.359 22.8906 211.953 23.0469C211.578 23.2031 211.203 23.3906 210.828 23.6094C210.484 23.8281 210.188 24.0938 209.938 24.4062H209.094C208.906 24.75 208.641 25.0156 208.297 25.2031C207.953 25.3594 207.656 25.5938 207.406 25.9062C206.906 26.1562 206.438 26.4688 206 26.8438C205.594 27.1875 205.188 27.5625 204.781 27.9688C204.375 28.3438 203.969 28.7344 203.562 29.1406C203.188 29.5469 202.781 29.9219 202.344 30.2656C201.938 31.1406 201.484 31.9062 200.984 32.5625C200.516 33.1875 200.062 33.8281 199.625 34.4844C199.219 35.1406 198.859 35.8594 198.547 36.6406C198.266 37.3906 198.125 38.3281 198.125 39.4531V39.9219C198.125 40.0781 198.141 40.2344 198.172 40.3906C198.578 40.8281 198.906 41.2969 199.156 41.7969C199.438 42.2969 199.891 42.6562 200.516 42.875C201.141 43.125 201.797 43.2344 202.484 43.2031C203.203 43.1719 203.891 43.25 204.547 43.4375C206.047 43.1562 207.484 42.7031 208.859 42.0781C210.266 41.4219 211.594 40.6406 212.844 39.7344C213.031 39.5781 213.25 39.4219 213.5 39.2656C213.75 39.0781 213.953 38.8906 214.109 38.7031C214.266 38.5469 214.391 38.375 214.484 38.1875C214.609 38 214.734 37.8281 214.859 37.6719C215.109 37.2656 215.391 36.8594 215.703 36.4531C216.016 36.0469 216.344 35.6719 216.688 35.3281C216.844 34.6406 217.047 33.9844 217.297 33.3594C217.547 32.7031 217.797 32.0625 218.047 31.4375C218.297 30.8125 218.5 30.1719 218.656 29.5156C218.844 28.8594 218.938 28.1719 218.938 27.4531C218.938 27.2969 218.922 27.125 218.891 26.9375C218.891 26.75 218.875 26.5781 218.844 26.4219C219.094 26.0781 219.219 25.7031 219.219 25.2969ZM258.641 26.8906C258.641 27.2031 258.531 27.4062 258.312 27.5C258.094 27.5938 257.984 27.7812 257.984 28.0625C257.984 28.1562 258.016 28.2344 258.078 28.2969C258.141 28.3594 258.172 28.4531 258.172 28.5781V28.7656C257.797 30.5781 257.25 32.1562 256.531 33.5C255.844 34.8438 255.031 36.0781 254.094 37.2031C253.156 38.3281 252.094 39.3906 250.906 40.3906C249.75 41.3906 248.5 42.4375 247.156 43.5312C246.781 43.8438 246.391 44.1562 245.984 44.4688C245.609 44.7812 245.25 45.1094 244.906 45.4531L243.875 46.4375C243.844 46.4688 243.672 46.5469 243.359 46.6719C243.047 46.7656 242.859 46.8281 242.797 46.8594C242.359 47.0469 241.891 47.2656 241.391 47.5156C240.922 47.7656 240.516 48.0781 240.172 48.4531C239.547 48.4531 239.016 48.5469 238.578 48.7344C238.141 48.9219 237.656 49.1719 237.125 49.4844C236.969 49.4844 236.828 49.4531 236.703 49.3906C236.609 49.3281 236.5 49.2656 236.375 49.2031C236.25 49.1406 236.109 49.1094 235.953 49.1094C235.828 49.0781 235.656 49.0938 235.438 49.1562C235.062 48.5312 234.656 48 234.219 47.5625C233.781 47.125 233.188 46.8594 232.438 46.7656C232.344 46.2344 232.125 45.8281 231.781 45.5469C231.438 45.2344 231.094 44.9062 230.75 44.5625C230.688 44.375 230.641 44.1562 230.609 43.9062C230.578 43.6562 230.516 43.4219 230.422 43.2031C230.328 42.9844 230.203 42.7969 230.047 42.6406C229.891 42.4844 229.672 42.4062 229.391 42.4062C229.359 42.2188 229.438 42.125 229.625 42.125C229.812 42.125 229.906 42.0469 229.906 41.8906C229.906 41.7031 229.875 41.5156 229.812 41.3281C229.75 41.1406 229.719 40.9375 229.719 40.7188C229.719 40.5625 229.734 40.4219 229.766 40.2969C229.797 40.1719 229.844 40.0312 229.906 39.875C229.812 39.0312 229.766 38.1719 229.766 37.2969C229.766 35.6094 229.875 33.9531 230.094 32.3281C230.344 30.6719 230.469 29 230.469 27.3125C230.469 26.5625 230.422 25.8125 230.328 25.0625C230.266 24.3125 230.125 23.5781 229.906 22.8594C229.188 23.0156 228.469 23.2031 227.75 23.4219C227.031 23.6094 226.359 23.875 225.734 24.2188C225.391 24 225.031 23.875 224.656 23.8438C224.25 23.7812 223.859 23.6875 223.484 23.5625C223.266 23.125 223.156 22.6719 223.156 22.2031C223.156 21.7656 223.234 21.3438 223.391 20.9375L223.859 19.7188C224.609 19.5625 225.359 19.3281 226.109 19.0156C226.828 18.7031 227.562 18.4219 228.312 18.1719C228.562 18.1094 228.875 18.0312 229.25 17.9375C229.656 17.8438 229.938 17.7656 230.094 17.7031C230.312 17.6094 230.453 17.4375 230.516 17.1875C230.609 16.9062 230.734 16.6719 230.891 16.4844H231.688C231.875 16.4844 232.078 16.5 232.297 16.5312C232.516 16.5312 232.719 16.5781 232.906 16.6719C234.031 16.3906 235.156 16.2188 236.281 16.1562C237.406 16.0625 238.562 15.9375 239.75 15.7812C239.875 15.7812 240.062 15.7656 240.312 15.7344L241.109 15.5938C241.391 15.5312 241.641 15.4844 241.859 15.4531C242.109 15.3906 242.281 15.3594 242.375 15.3594C242.469 15.3594 242.516 15.4062 242.516 15.5H243.312C244.656 15.5 245.969 15.6719 247.25 16.0156L251.094 17.0469C251.625 17.4844 252.156 17.9062 252.688 18.3125C253.219 18.7188 253.812 19.0781 254.469 19.3906C254.625 19.8906 254.859 20.2969 255.172 20.6094C255.516 20.8906 255.891 21.2031 256.297 21.5469C256.453 21.9531 256.656 22.3906 256.906 22.8594C257.188 23.2969 257.453 23.75 257.703 24.2188C257.953 24.6875 258.172 25.1562 258.359 25.625C258.547 26.0625 258.641 26.4844 258.641 26.8906ZM254.281 27.5938C253.938 26.875 253.609 26.125 253.297 25.3438C252.984 24.5625 252.594 23.8594 252.125 23.2344C251.562 23.0781 250.984 22.8906 250.391 22.6719C249.828 22.4219 249.438 22 249.219 21.4062C249.156 21.4375 249.047 21.4531 248.891 21.4531C248.609 21.4531 248.359 21.3438 248.141 21.125C247.922 20.9062 247.672 20.7656 247.391 20.7031C247.141 20.6719 246.797 20.625 246.359 20.5625C245.953 20.5 245.516 20.4531 245.047 20.4219C244.578 20.3906 244.109 20.3594 243.641 20.3281C243.203 20.2969 242.859 20.2812 242.609 20.2812C242.359 20.2812 242.094 20.2969 241.812 20.3281C241.562 20.3281 241.297 20.3438 241.016 20.375C240.766 20.375 240.609 20.4219 240.547 20.5156C240.484 20.5781 240.359 20.6406 240.172 20.7031C240.016 20.6406 239.844 20.6094 239.656 20.6094H239.094C238.438 20.6094 237.781 20.7188 237.125 20.9375C236.5 21.125 235.875 21.3906 235.25 21.7344V21.9219C235.25 22.1719 235.359 22.3125 235.578 22.3438C235.797 22.375 235.922 22.5 235.953 22.7188C235.797 22.7188 235.672 22.7344 235.578 22.7656C235.484 22.7656 235.438 22.875 235.438 23.0938C235.438 23.4062 235.469 23.75 235.531 24.125C235.625 24.5 235.672 24.875 235.672 25.25C235.672 25.5312 235.641 25.8594 235.578 26.2344C235.516 26.6094 235.359 26.9062 235.109 27.125C235.422 27.4062 235.578 27.7812 235.578 28.25C235.578 28.5625 235.516 28.8906 235.391 29.2344C235.266 29.5781 235.109 29.875 234.922 30.125C234.859 31.4375 234.734 32.7656 234.547 34.1094C234.359 35.4531 234.266 36.7812 234.266 38.0938C234.266 38.75 234.297 39.3906 234.359 40.0156C234.453 40.6406 234.594 41.2656 234.781 41.8906C235.125 42.2344 235.484 42.5 235.859 42.6875C236.266 42.875 236.688 43.0625 237.125 43.25V43.3906C237.125 43.4844 237.062 43.5781 236.938 43.6719C236.812 43.7656 236.75 43.8906 236.75 44.0469C236.75 44.1719 236.812 44.2344 236.938 44.2344C238.25 43.8594 239.484 43.4062 240.641 42.875C241.797 42.3438 242.875 41.625 243.875 40.7188C243.969 40.625 244.062 40.5781 244.156 40.5781C244.219 40.5781 244.297 40.5938 244.391 40.625C244.516 40.6562 244.625 40.6875 244.719 40.7188L244.672 40.5312C244.672 40.3438 244.719 40.1719 244.812 40.0156C244.938 39.8594 245.078 39.7188 245.234 39.5938L245.703 39.1719C245.859 39.0156 245.984 38.8594 246.078 38.7031C246.328 38.6406 246.5 38.5156 246.594 38.3281C246.719 38.1406 246.922 38.0469 247.203 38.0469C247.266 37.7031 247.438 37.4531 247.719 37.2969C248 37.1094 248.172 36.8438 248.234 36.5C248.859 36.1562 249.406 35.7344 249.875 35.2344C250.375 34.7344 250.828 34.2031 251.234 33.6406C251.672 33.0781 252.078 32.5 252.453 31.9062C252.828 31.2812 253.219 30.6875 253.625 30.125V29.9375C253.625 29.4375 253.703 29.0312 253.859 28.7188C254.047 28.4062 254.188 28.0312 254.281 27.5938ZM326.516 39.2656C326.516 39.8906 326.406 40.4062 326.188 40.8125C326 41.1875 325.781 41.625 325.531 42.125C325.469 42.0938 325.391 42.0781 325.297 42.0781C325.109 42.0781 324.938 42.125 324.781 42.2188C324.625 42.3125 324.469 42.3906 324.312 42.4531C323.406 43.4531 322.469 44.4219 321.5 45.3594C320.562 46.2969 319.516 47.125 318.359 47.8438C318.047 48.0312 317.734 48.2188 317.422 48.4062C317.109 48.5625 316.781 48.7188 316.438 48.875C316.312 48.9375 316.188 49 316.062 49.0625C315.969 49.0938 315.875 49.1406 315.781 49.2031C315.562 49.3281 315.328 49.5312 315.078 49.8125C314.859 50.0938 314.594 50.375 314.281 50.6562C314 50.9688 313.688 51.2188 313.344 51.4062C313 51.625 312.625 51.7188 312.219 51.6875C311.969 51.8438 311.75 52.0469 311.562 52.2969C311.375 52.5469 311.156 52.7969 310.906 53.0469C309.562 53.5156 308.328 54.125 307.203 54.875C306.109 55.6562 304.969 56.4062 303.781 57.125C303.062 57.5938 302.344 57.9688 301.625 58.25C301.469 58.3125 301.281 58.3594 301.062 58.3906C300.875 58.4219 300.672 58.4688 300.453 58.5312C299.422 58.7812 298.375 58.9844 297.312 59.1406C296.281 59.2969 295.234 59.375 294.172 59.375C292.859 59.375 291.594 59.2188 290.375 58.9062C290.375 58.8125 290.344 58.75 290.281 58.7188C290.219 58.6875 290.141 58.6562 290.047 58.625C289.984 58.5938 289.922 58.5469 289.859 58.4844C289.797 58.4531 289.797 58.375 289.859 58.25C289.172 58.1875 288.562 58.0156 288.031 57.7344C287.531 57.4531 287.203 56.9531 287.047 56.2344C286.953 56.2969 286.875 56.375 286.812 56.4688C286.75 56.5625 286.641 56.5938 286.484 56.5625C286.047 55.9375 285.562 55.3594 285.031 54.8281C284.5 54.2969 284.109 53.6562 283.859 52.9062C283.797 52.75 283.75 52.5938 283.719 52.4375C283.719 52.3125 283.703 52.1719 283.672 52.0156C283.516 51.5781 283.234 51.3594 282.828 51.3594C282.891 51.2344 282.922 51.0781 282.922 50.8906C282.922 50.7969 282.906 50.7031 282.875 50.6094C282.875 50.5156 282.875 50.4219 282.875 50.3281C282.875 50.1719 282.922 50.0156 283.016 49.8594C282.703 49.1406 282.484 48.4375 282.359 47.75C282.234 47.0312 282.172 46.2969 282.172 45.5469C282.172 44.5781 282.219 43.625 282.312 42.6875C282.406 41.7188 282.453 40.75 282.453 39.7812C282.641 39.4062 282.781 38.9688 282.875 38.4688C283 37.9688 283.203 37.5625 283.484 37.25C283.453 37.0625 283.391 36.9688 283.297 36.9688C283.203 36.9375 283.156 36.8438 283.156 36.6875C283.156 36.125 283.266 35.5156 283.484 34.8594C283.703 34.2031 283.812 33.5312 283.812 32.8438C284.094 32.6875 284.266 32.4531 284.328 32.1406C284.422 31.8281 284.594 31.5781 284.844 31.3906V31.1562C284.844 30.6875 284.891 30.2188 284.984 29.75C285.109 29.2812 285.219 28.8281 285.312 28.3906C285.438 27.9219 285.531 27.4688 285.594 27.0312C285.688 26.5625 285.719 26.1094 285.688 25.6719C285.75 25.5781 285.828 25.4062 285.922 25.1562C286.047 24.875 286.156 24.5938 286.25 24.3125C286.375 24 286.469 23.7031 286.531 23.4219C286.625 23.1406 286.672 22.9375 286.672 22.8125C286.672 22.625 286.641 22.4531 286.578 22.2969C286.516 22.1406 286.484 21.9688 286.484 21.7812C286.484 21.625 286.531 21.4062 286.625 21.125C286.719 20.8125 286.797 20.5625 286.859 20.375C286.984 19.8438 287.094 19.2969 287.188 18.7344C287.312 18.1406 287.422 17.5781 287.516 17.0469C287.797 15.3281 288 13.6094 288.125 11.8906C288.25 10.1406 288.328 8.39062 288.359 6.64062C288.797 6.39062 289.25 6.15625 289.719 5.9375C290.219 5.71875 290.734 5.60938 291.266 5.60938C291.422 5.60938 291.578 5.625 291.734 5.65625C291.891 5.6875 292.047 5.73438 292.203 5.79688C292.359 6.42188 292.609 6.92188 292.953 7.29688C293.297 7.67188 293.609 8.125 293.891 8.65625C293.703 9.15625 293.578 9.67188 293.516 10.2031L293.375 11.7969C293.344 12.3281 293.281 12.8594 293.188 13.3906C293.094 13.8906 292.938 14.375 292.719 14.8438C292.781 15 292.812 15.1562 292.812 15.3125V15.7812C292.812 16.2188 292.766 16.6406 292.672 17.0469C292.609 17.4531 292.531 17.875 292.438 18.3125C292.344 18.7188 292.266 19.125 292.203 19.5312C292.141 19.9375 292.141 20.3438 292.203 20.75C292.109 20.9062 292.016 21.0312 291.922 21.125C291.828 21.1875 291.766 21.2969 291.734 21.4531L291.641 22.3438C291.578 22.6875 291.516 23.0312 291.453 23.375C291.422 23.6875 291.375 24.0156 291.312 24.3594C291.094 25.2969 290.844 26.2344 290.562 27.1719C290.312 28.1094 290.188 29.0781 290.188 30.0781V30.3594C289.906 30.7969 289.688 31.3438 289.531 32C289.375 32.625 289.328 33.2031 289.391 33.7344C289.047 34.6406 288.719 35.5312 288.406 36.4062C288.094 37.2812 287.938 38.1875 287.938 39.125C287.938 39.2812 287.938 39.4531 287.938 39.6406C287.969 39.7969 288 39.9531 288.031 40.1094C287.781 40.7344 287.625 41.375 287.562 42.0312C287.5 42.6562 287.469 43.2812 287.469 43.9062C287.469 44.3438 287.484 44.8594 287.516 45.4531C287.578 46.0156 287.656 46.6094 287.75 47.2344C287.875 47.8281 288.016 48.4062 288.172 48.9688C288.328 49.5312 288.5 49.9844 288.688 50.3281C289.406 51.4844 290.344 52.3906 291.5 53.0469C292.688 53.7344 293.938 54.1719 295.25 54.3594C295.781 54.1719 296.203 54.0625 296.516 54.0312C296.859 54 297.328 54 297.922 54.0312C298.422 53.7812 298.922 53.5938 299.422 53.4688C299.953 53.3438 300.484 53.2031 301.016 53.0469C301.172 52.9844 301.328 52.9219 301.484 52.8594C301.672 52.7969 301.828 52.7344 301.953 52.6719C302.109 52.6094 302.281 52.4688 302.469 52.25C302.656 52.0312 302.828 51.8438 302.984 51.6875C303.641 51.5 304.266 51.2344 304.859 50.8906C305.453 50.5781 306.031 50.25 306.594 49.9062L308.328 48.875C308.922 48.5312 309.547 48.2344 310.203 47.9844C310.453 47.8906 310.594 47.7656 310.625 47.6094C310.688 47.4219 310.781 47.2031 310.906 46.9531C310.969 47.0156 311.062 47.0469 311.188 47.0469C311.562 47.0469 311.828 46.9375 311.984 46.7188C312.141 46.4688 312.328 46.2188 312.547 45.9688C312.953 45.9062 313.344 45.7969 313.719 45.6406C314.094 45.4531 314.375 45.1719 314.562 44.7969C315.344 44.6406 316.031 44.3594 316.625 43.9531C317.219 43.5469 317.797 43.1094 318.359 42.6406C318.922 42.1406 319.484 41.6719 320.047 41.2344C320.609 40.7656 321.25 40.3906 321.969 40.1094C322.062 39.9531 322.125 39.8125 322.156 39.6875C322.188 39.5625 322.234 39.4219 322.297 39.2656C322.828 39.2031 323.25 39.0625 323.562 38.8438C323.875 38.5938 324.234 38.3438 324.641 38.0938C325.516 38.1875 326.141 38.5781 326.516 39.2656ZM351.547 22.8594C351.359 23.1406 351.25 23.4531 351.219 23.7969C351.188 24.1406 351.172 24.4531 351.172 24.7344C351.172 25.1094 351.172 25.4844 351.172 25.8594C351.203 26.2031 351.219 26.5469 351.219 26.8906V27.5938C351.156 27.8125 351.062 28.0312 350.938 28.25C350.812 28.4688 350.719 28.6875 350.656 28.9062C350.219 30.0625 350 31.2188 350 32.375V32.4688C349.844 32.8438 349.688 33.1875 349.531 33.5C349.406 33.8125 349.281 34.125 349.156 34.4375C349.031 34.7188 348.938 35.0312 348.875 35.375C348.812 35.6875 348.797 36.0625 348.828 36.5C348.391 37.5938 347.812 38.5938 347.094 39.5C346.375 40.375 345.672 41.2812 344.984 42.2188C344.328 42.4688 343.719 42.7969 343.156 43.2031C342.625 43.6094 342.109 44.0625 341.609 44.5625C340.641 44.875 339.688 45.2344 338.75 45.6406C337.812 46.0469 336.969 46.5938 336.219 47.2812C335.625 47.3438 335.031 47.4375 334.438 47.5625C333.844 47.6875 333.266 47.875 332.703 48.125H332.141C331.859 48.125 331.656 48.0625 331.531 47.9375C331.125 48.1562 330.703 48.3125 330.266 48.4062C329.828 48.4688 329.391 48.5 328.953 48.5C328.391 48.5 327.828 48.4688 327.266 48.4062C326.734 48.3125 326.188 48.2188 325.625 48.125C325.312 47.6875 324.875 47.3594 324.312 47.1406C323.75 46.8906 323.25 46.6562 322.812 46.4375C321.906 45.1875 321.25 43.9844 320.844 42.8281C320.438 41.6406 320.016 40.3125 319.578 38.8438C319.641 38.4062 319.75 37.9844 319.906 37.5781C320.062 37.1406 320.125 36.6719 320.094 36.1719C320.656 34.5469 321.391 33.0781 322.297 31.7656C323.234 30.4219 324.297 29.1406 325.484 27.9219C325.484 27.7344 325.516 27.5781 325.578 27.4531C325.672 27.3281 325.688 27.1406 325.625 26.8906C325.656 26.9219 325.719 26.9375 325.812 26.9375C326.062 26.9375 326.219 26.875 326.281 26.75C326.344 26.5938 326.359 26.4219 326.328 26.2344C327.453 25.5156 328.469 24.6875 329.375 23.75C330.312 22.8125 331.375 22.0312 332.562 21.4062C332.656 21.125 332.812 20.8906 333.031 20.7031C333.25 20.5156 333.422 20.2969 333.547 20.0469C334.547 19.7656 335.453 19.3438 336.266 18.7812C337.078 18.2188 337.938 17.7188 338.844 17.2812C339.344 17 339.812 16.8125 340.25 16.7188C340.719 16.5938 341.219 16.4688 341.75 16.3438C341.938 16.2812 342.109 16.2344 342.266 16.2031C342.422 16.1719 342.594 16.1562 342.781 16.1562C343.344 16.1562 343.891 16.2656 344.422 16.4844C344.953 16.6719 345.5 16.7656 346.062 16.7656C346.219 16.7656 346.344 16.7656 346.438 16.7656C346.562 16.7344 346.688 16.7031 346.812 16.6719C347.344 17.3281 348.016 17.8281 348.828 18.1719C349.016 18.6406 349.234 19.0469 349.484 19.3906C349.766 19.7344 350.047 20.0781 350.328 20.4219C350.609 20.7344 350.859 21.0938 351.078 21.5C351.328 21.875 351.484 22.3281 351.547 22.8594ZM346.859 25.2969C346.859 25.1406 346.844 25 346.812 24.875C346.5 24.7812 346.203 24.6562 345.922 24.5C345.641 24.3438 345.328 24.2656 344.984 24.2656C344.766 24.2656 344.547 24.3125 344.328 24.4062C344.297 24.1875 344.203 24.0312 344.047 23.9375C343.922 23.8438 343.766 23.7656 343.578 23.7031C343.422 23.6094 343.25 23.5469 343.062 23.5156C342.906 23.4531 342.766 23.3594 342.641 23.2344C342.547 22.9844 342.438 22.7344 342.312 22.4844C342.219 22.2031 342.031 22 341.75 21.875C341.469 22.1562 341.141 22.3906 340.766 22.5781C340.391 22.7344 340 22.8906 339.594 23.0469C339.219 23.2031 338.844 23.3906 338.469 23.6094C338.125 23.8281 337.828 24.0938 337.578 24.4062H336.734C336.547 24.75 336.281 25.0156 335.938 25.2031C335.594 25.3594 335.297 25.5938 335.047 25.9062C334.547 26.1562 334.078 26.4688 333.641 26.8438C333.234 27.1875 332.828 27.5625 332.422 27.9688C332.016 28.3438 331.609 28.7344 331.203 29.1406C330.828 29.5469 330.422 29.9219 329.984 30.2656C329.578 31.1406 329.125 31.9062 328.625 32.5625C328.156 33.1875 327.703 33.8281 327.266 34.4844C326.859 35.1406 326.5 35.8594 326.188 36.6406C325.906 37.3906 325.766 38.3281 325.766 39.4531V39.9219C325.766 40.0781 325.781 40.2344 325.812 40.3906C326.219 40.8281 326.547 41.2969 326.797 41.7969C327.078 42.2969 327.531 42.6562 328.156 42.875C328.781 43.125 329.438 43.2344 330.125 43.2031C330.844 43.1719 331.531 43.25 332.188 43.4375C333.688 43.1562 335.125 42.7031 336.5 42.0781C337.906 41.4219 339.234 40.6406 340.484 39.7344C340.672 39.5781 340.891 39.4219 341.141 39.2656C341.391 39.0781 341.594 38.8906 341.75 38.7031C341.906 38.5469 342.031 38.375 342.125 38.1875C342.25 38 342.375 37.8281 342.5 37.6719C342.75 37.2656 343.031 36.8594 343.344 36.4531C343.656 36.0469 343.984 35.6719 344.328 35.3281C344.484 34.6406 344.688 33.9844 344.938 33.3594C345.188 32.7031 345.438 32.0625 345.688 31.4375C345.938 30.8125 346.141 30.1719 346.297 29.5156C346.484 28.8594 346.578 28.1719 346.578 27.4531C346.578 27.2969 346.562 27.125 346.531 26.9375C346.531 26.75 346.516 26.5781 346.484 26.4219C346.734 26.0781 346.859 25.7031 346.859 25.2969ZM380.516 16.625C380.516 17.1562 380.484 17.6719 380.422 18.1719C380.391 18.6406 380.297 19.1406 380.141 19.6719C379.859 19.8906 379.609 20.1562 379.391 20.4688L378.734 21.3594C378.516 21.6406 378.281 21.9219 378.031 22.2031C377.781 22.4531 377.469 22.6562 377.094 22.8125C376.781 24.1875 376.391 25.5156 375.922 26.7969C375.484 28.0469 375.156 29.3594 374.938 30.7344C374.562 31.4219 374.266 32.1719 374.047 32.9844C373.828 33.7969 373.594 34.625 373.344 35.4688C373.125 36.2812 372.875 37.0625 372.594 37.8125C372.312 38.5625 371.922 39.2344 371.422 39.8281C371.172 40.5781 370.922 41.3906 370.672 42.2656C370.422 43.1094 370 43.8125 369.406 44.375C369.438 44.4375 369.453 44.5312 369.453 44.6562C369.453 45.0312 369.359 45.3906 369.172 45.7344C368.984 46.0469 368.891 46.375 368.891 46.7188C368.391 47.0938 367.906 47.5312 367.438 48.0312C367 48.5312 366.547 49.0312 366.078 49.5312C365.609 50.0312 365.109 50.4688 364.578 50.8438C364.047 51.2188 363.469 51.4688 362.844 51.5938C362.406 51.2812 362 50.9219 361.625 50.5156C361.25 50.1406 360.812 49.8281 360.312 49.5781C360.062 48.1719 359.906 46.7969 359.844 45.4531C359.812 44.0781 359.703 42.7188 359.516 41.375C359.391 40.5938 359.188 39.8438 358.906 39.125C358.656 38.4062 358.531 37.6719 358.531 36.9219C358.531 36.7656 358.531 36.6094 358.531 36.4531C358.562 36.2656 358.594 36.0938 358.625 35.9375C358.312 35.5938 358.109 35.1719 358.016 34.6719C357.922 34.1406 357.844 33.6094 357.781 33.0781C357.719 32.5156 357.625 31.9688 357.5 31.4375C357.406 30.9062 357.219 30.4531 356.938 30.0781C357.062 29.9531 357.125 29.7812 357.125 29.5625C357.125 29.4062 357.094 29.25 357.031 29.0938C357 28.9375 356.984 28.7812 356.984 28.625C356.984 28.5 357.031 28.3594 357.125 28.2031C356.875 27.8906 356.703 27.6094 356.609 27.3594C356.547 27.0781 356.5 26.8125 356.469 26.5625C356.438 26.2812 356.406 26 356.375 25.7188C356.375 25.4375 356.344 25.1406 356.281 24.8281C356.219 24.6094 356.109 24.4531 355.953 24.3594C355.828 24.2344 355.766 24.1406 355.766 24.0781C355.766 23.9219 355.828 23.7969 355.953 23.7031C355.516 23.0781 355.156 22.4219 354.875 21.7344C354.594 21.0469 354.281 20.3594 353.938 19.6719C353.969 19.3281 354.094 19.0625 354.312 18.875C354.531 18.6875 354.688 18.4375 354.781 18.125H356.281C357.656 20.8125 358.703 23.6094 359.422 26.5156C360.172 29.3906 360.828 32.2969 361.391 35.2344C361.547 36.0781 361.688 36.9219 361.812 37.7656C361.969 38.6094 362.141 39.4688 362.328 40.3438C362.391 40.5312 362.484 40.7344 362.609 40.9531C362.734 41.1719 362.797 41.3906 362.797 41.6094C362.797 41.7969 362.75 41.9844 362.656 42.1719C362.844 42.2969 362.984 42.4688 363.078 42.6875C363.203 42.9062 363.297 43.1406 363.359 43.3906C363.453 43.6094 363.531 43.8438 363.594 44.0938C363.656 44.3125 363.75 44.5156 363.875 44.7031C364.25 44.6719 364.578 44.5 364.859 44.1875C365.141 43.875 365.391 43.5156 365.609 43.1094C365.859 42.6719 366.078 42.25 366.266 41.8438C366.484 41.4062 366.734 41.0625 367.016 40.8125C367.047 40.4688 367.109 40.1406 367.203 39.8281C367.328 39.4844 367.391 39.1406 367.391 38.7969C367.703 38.2656 367.984 37.7656 368.234 37.2969C368.484 36.8281 368.641 36.2656 368.703 35.6094C368.859 35.4844 368.953 35.3906 368.984 35.3281C369.016 35.2344 369.156 35.2188 369.406 35.2812C369.406 34.4375 369.531 33.625 369.781 32.8438C370.062 32.0312 370.438 31.2656 370.906 30.5469C370.969 29.8281 371.109 29.1094 371.328 28.3906C371.578 27.6406 371.859 26.9062 372.172 26.1875C372.266 25.9688 372.391 25.7188 372.547 25.4375C372.703 25.125 372.781 24.8438 372.781 24.5938C372.781 24.4688 372.75 24.3594 372.688 24.2656C372.656 24.1406 372.641 24.0156 372.641 23.8906C372.641 23.6406 372.734 23.4219 372.922 23.2344C373.109 23.0469 373.281 22.8594 373.438 22.6719C373.438 21.9531 373.516 21.2344 373.672 20.5156C373.828 19.7969 374.141 19.1719 374.609 18.6406C374.766 17.5781 374.969 16.5469 375.219 15.5469C375.469 14.5156 375.828 13.5312 376.297 12.5938H377.984C377.984 12 378.25 11.7031 378.781 11.7031C379.094 11.7031 379.438 11.7812 379.812 11.9375C380.062 12.625 380.234 13.4062 380.328 14.2812C380.453 15.125 380.516 15.9062 380.516 16.625ZM410.094 20.1875V20.375C409.875 20.4375 409.766 20.5938 409.766 20.8438C409.422 21 409.062 21.125 408.688 21.2188C408.312 21.2812 407.953 21.3906 407.609 21.5469C407.266 21.5156 406.906 21.5 406.531 21.5C406.188 21.4688 405.844 21.4531 405.5 21.4531C404.562 21.4531 403.625 21.4844 402.688 21.5469C401.75 21.6094 400.812 21.6094 399.875 21.5469C399.438 21.7969 398.953 22 398.422 22.1562C397.922 22.2812 397.438 22.3438 396.969 22.3438C396.594 22.3438 396.266 22.2969 395.984 22.2031C395.234 22.5781 394.406 22.8906 393.5 23.1406C392.625 23.3906 391.734 23.6406 390.828 23.8906C389.922 24.1094 389.047 24.375 388.203 24.6875C387.391 24.9688 386.672 25.375 386.047 25.9062C385.984 26.3438 385.938 26.7812 385.906 27.2188C385.875 27.625 385.859 28.0312 385.859 28.4375C385.859 28.875 385.875 29.2812 385.906 29.6562C385.969 30.0312 386.078 30.4062 386.234 30.7812C386.391 30.8438 386.562 30.8906 386.75 30.9219C386.969 30.9531 387.156 30.9688 387.312 30.9688C387.469 30.9688 387.625 30.9531 387.781 30.9219C387.938 30.8594 388.047 30.75 388.109 30.5938C388.578 30.5312 389.047 30.5156 389.516 30.5469C389.984 30.5469 390.453 30.5469 390.922 30.5469C391.391 30.5469 391.844 30.5312 392.281 30.5C392.75 30.4688 393.203 30.3906 393.641 30.2656C394.141 30.1406 394.625 30.0625 395.094 30.0312C395.594 30 396.078 29.9688 396.547 29.9375C397.016 29.9062 397.5 29.8594 398 29.7969C398.5 29.7031 399.016 29.5312 399.547 29.2812C399.953 29.4375 400.359 29.5156 400.766 29.5156C401.203 29.5156 401.625 29.5469 402.031 29.6094C402.25 29.7656 402.422 29.9375 402.547 30.125C402.703 30.3125 402.781 30.5312 402.781 30.7812C402.781 31.2188 402.625 31.6562 402.312 32.0938C402 32.5312 401.75 32.9375 401.562 33.3125H401.047C400.297 33.3125 399.562 33.4219 398.844 33.6406C398.156 33.8281 397.453 34.0625 396.734 34.3438C396.047 34.5938 395.344 34.8281 394.625 35.0469C393.938 35.2344 393.219 35.3281 392.469 35.3281C392.344 35.3281 392.266 35.4062 392.234 35.5625C392.234 35.6875 392.203 35.7812 392.141 35.8438C391.984 35.8125 391.75 35.7969 391.438 35.7969C390.719 35.7969 390.031 35.875 389.375 36.0312C388.719 36.1875 388.047 36.2656 387.359 36.2656C387.172 36.2656 386.984 36.2656 386.797 36.2656C386.609 36.2344 386.422 36.2031 386.234 36.1719C386.078 36.4219 385.875 36.5938 385.625 36.6875C385.375 36.75 385.141 36.875 384.922 37.0625C384.828 37.3438 384.766 37.6875 384.734 38.0938C384.734 38.5 384.719 38.9219 384.688 39.3594C384.688 39.7656 384.656 40.1562 384.594 40.5312C384.531 40.9062 384.406 41.2031 384.219 41.4219C384.25 41.5781 384.375 41.6406 384.594 41.6094C384.812 41.5469 384.922 41.6406 384.922 41.8906C384.922 42.1719 384.891 42.4688 384.828 42.7812C384.766 43.0938 384.734 43.4062 384.734 43.7188C384.734 44.3125 384.797 44.9688 384.922 45.6875C385.078 46.375 385.297 47.0156 385.578 47.6094C385.891 48.2031 386.297 48.7031 386.797 49.1094C387.297 49.4844 387.922 49.6719 388.672 49.6719C389.172 49.6719 389.641 49.5781 390.078 49.3906C390.516 49.2031 390.875 48.8906 391.156 48.4531L391.391 48.4062C391.516 48.4062 391.625 48.4219 391.719 48.4531C391.844 48.4844 391.969 48.5 392.094 48.5C392.281 48.5 392.516 48.3906 392.797 48.1719C393.109 47.9219 393.438 47.6406 393.781 47.3281C394.156 47.0156 394.531 46.7188 394.906 46.4375C395.281 46.125 395.641 45.9062 395.984 45.7812C396.203 45.3438 396.406 44.9062 396.594 44.4688C396.812 44.0312 397.125 43.6875 397.531 43.4375V42.0781C397.844 41.7344 398.172 41.4219 398.516 41.1406C398.891 40.8594 399.172 40.5 399.359 40.0625C399.516 40.125 399.656 40.1719 399.781 40.2031C399.938 40.2344 400.094 40.25 400.25 40.25C400.406 40.25 400.562 40.2344 400.719 40.2031C400.906 40.1719 401.078 40.125 401.234 40.0625C401.484 40.4062 401.672 40.7969 401.797 41.2344C401.953 41.6406 402.141 42.0312 402.359 42.4062C402.078 42.9688 401.75 43.6406 401.375 44.4219C401 45.2031 400.594 45.9844 400.156 46.7656C399.719 47.5469 399.25 48.2969 398.75 49.0156C398.281 49.7031 397.812 50.2344 397.344 50.6094C397.25 50.7031 397.047 50.8125 396.734 50.9375C396.391 51.1875 396.078 51.4219 395.797 51.6406C395.516 51.8906 395.25 52.1719 395 52.4844C394.094 52.7656 393.219 53.1406 392.375 53.6094C391.562 54.0781 390.75 54.5312 389.938 54.9688C389.562 54.875 389.156 54.8281 388.719 54.8281C388.344 54.8281 387.969 54.8438 387.594 54.875C387.219 54.9375 386.812 54.9688 386.375 54.9688C386.25 54.8125 386.062 54.7031 385.812 54.6406C385.594 54.6094 385.516 54.4531 385.578 54.1719C384.516 54.1094 383.656 53.8125 383 53.2812C382.344 52.7812 381.781 52.1562 381.312 51.4062C380.875 50.6562 380.516 49.8438 380.234 48.9688C379.953 48.0938 379.656 47.25 379.344 46.4375V46.2969C379.344 46.1406 379.406 46.0469 379.531 46.0156C379.656 45.9844 379.719 45.8906 379.719 45.7344C379.719 45.6719 379.703 45.625 379.672 45.5938C379.578 45.25 379.5 44.9531 379.438 44.7031C379.375 44.4531 379.344 44.1562 379.344 43.8125C379.344 43.3125 379.375 42.8281 379.438 42.3594C379.5 41.8594 379.531 41.3594 379.531 40.8594C379.531 40.3594 379.469 39.9219 379.344 39.5469C379.469 39.3906 379.578 39.1875 379.672 38.9375C379.734 38.6562 379.781 38.375 379.812 38.0938C379.844 37.8125 379.859 37.5312 379.859 37.25C379.891 36.9688 379.938 36.7188 380 36.5C379.875 36.1562 379.766 35.8594 379.672 35.6094C379.578 35.3281 379.531 35 379.531 34.625V34.2969C379.844 33.7656 380.109 33.2188 380.328 32.6562C380.547 32.0938 380.781 31.5156 381.031 30.9219V30.7812C381.031 29.875 381 28.9688 380.938 28.0625C380.875 27.1562 380.844 26.25 380.844 25.3438V24.4531C380.844 24.1406 380.859 23.8438 380.891 23.5625C381.141 23.4375 381.328 23.2656 381.453 23.0469C381.578 22.8281 381.766 22.6562 382.016 22.5312H383.562L383.844 22.0625C383.938 21.9062 384 21.7344 384.031 21.5469C384.375 21.4531 384.703 21.3281 385.016 21.1719C385.359 20.9844 385.672 20.7969 385.953 20.6094C386.391 20.3594 386.781 20.1406 387.125 19.9531C387.5 19.7344 387.859 19.5625 388.203 19.4375C388.578 19.2812 388.969 19.1562 389.375 19.0625C389.781 18.9688 390.25 18.8906 390.781 18.8281C391.031 18.8281 391.188 18.7812 391.25 18.6875C391.344 18.5938 391.469 18.4844 391.625 18.3594C392 18.4219 392.375 18.4844 392.75 18.5469C393.125 18.5781 393.5 18.5938 393.875 18.5938C394.625 18.5938 395.328 18.4531 395.984 18.1719C396.922 18.1719 397.844 18.1562 398.75 18.125C399.688 18.0938 400.625 18.0781 401.562 18.0781C402.375 18.0781 403.188 18.1094 404 18.1719C404.812 18.2344 405.609 18.3438 406.391 18.5C406.672 18.4062 406.984 18.3594 407.328 18.3594C407.703 18.3594 408.078 18.4062 408.453 18.5C408.859 18.5625 409.25 18.5625 409.625 18.5C409.656 18.8438 409.734 19.1406 409.859 19.3906C410.016 19.6094 410.094 19.875 410.094 20.1875ZM467.797 41.8438C467.734 42.3125 467.562 42.6719 467.281 42.9219C467.031 43.1719 466.734 43.4062 466.391 43.625C466.234 43.5938 466.078 43.5781 465.922 43.5781C465.797 43.5469 465.656 43.5312 465.5 43.5312C464.531 43.5 463.609 43.625 462.734 43.9062C461.891 44.1875 461.016 44.3906 460.109 44.5156C459.797 44.5781 459.5 44.6094 459.219 44.6094C458.969 44.5781 458.703 44.5938 458.422 44.6562C457.422 44.8125 456.359 44.9375 455.234 45.0312C454.109 45.125 452.984 45.25 451.859 45.4062C450.734 45.5312 449.625 45.7031 448.531 45.9219C447.469 46.1094 446.469 46.3906 445.531 46.7656C445.438 46.7031 445.344 46.6406 445.25 46.5781C445.156 46.4844 445.047 46.4375 444.922 46.4375C444.609 46.4375 444.312 46.4844 444.031 46.5781C443.75 46.6719 443.469 46.7031 443.188 46.6719C442.875 46.8594 442.531 47 442.156 47.0938C441.812 47.1562 441.453 47.2188 441.078 47.2812C440.734 47.3125 440.391 47.375 440.047 47.4688C439.703 47.5625 439.375 47.7344 439.062 47.9844C438.812 47.8594 438.5 47.7969 438.125 47.7969C437.781 47.7656 437.547 47.6406 437.422 47.4219C436.703 47.7656 435.938 47.9844 435.125 48.0781C434.344 48.1719 433.547 48.2031 432.734 48.1719C432.203 48.1406 431.594 48.0625 430.906 47.9375C430.219 47.8125 429.531 47.6406 428.844 47.4219C428.156 47.1719 427.516 46.8906 426.922 46.5781C426.328 46.2344 425.875 45.8281 425.562 45.3594C425.344 45.0469 425.188 44.7031 425.094 44.3281C425 43.9531 424.781 43.6719 424.438 43.4844C424.531 42.7656 424.641 42.0625 424.766 41.375C424.891 40.6875 425.016 39.9844 425.141 39.2656C425.766 38.7344 426.359 38.1719 426.922 37.5781C427.484 36.9844 428.016 36.3594 428.516 35.7031C429.109 35.4219 429.656 35.0781 430.156 34.6719C430.688 34.2656 431.203 33.8594 431.703 33.4531C432.234 33.0156 432.75 32.5938 433.25 32.1875C433.781 31.7812 434.344 31.4219 434.938 31.1094C435.031 30.8906 435.156 30.7188 435.312 30.5938C435.5 30.4375 435.688 30.2969 435.875 30.1719C436.062 30.0156 436.234 29.8594 436.391 29.7031C436.547 29.5156 436.656 29.2969 436.719 29.0469C437.812 28.3906 438.766 27.5625 439.578 26.5625C440.391 25.5625 440.922 24.4375 441.172 23.1875C440.641 22.75 440.031 22.4688 439.344 22.3438C438.688 22.1875 438 22.0781 437.281 22.0156C436.656 21.9844 436 21.9844 435.312 22.0156C434.656 22.0469 433.984 22.0312 433.297 21.9688C432.609 22.1875 431.891 22.3281 431.141 22.3906C430.422 22.4531 429.703 22.5156 428.984 22.5781C428.266 22.6094 427.547 22.7031 426.828 22.8594C426.141 22.9844 425.469 23.2344 424.812 23.6094C424.688 23.6094 424.562 23.5938 424.438 23.5625C424.344 23.5312 424.234 23.5156 424.109 23.5156C423.109 23.4844 422.172 23.6875 421.297 24.125C420.422 24.5312 419.562 24.9375 418.719 25.3438C418.656 25.4688 418.625 25.5625 418.625 25.625C418.625 25.8125 418.656 26 418.719 26.1875C418.812 26.3438 418.859 26.5156 418.859 26.7031C418.828 26.7344 418.812 26.7656 418.812 26.7969C418.812 26.8281 418.797 26.8594 418.766 26.8906C418.734 27.0469 418.688 27.1875 418.625 27.3125C418.594 27.4375 418.547 27.5781 418.484 27.7344C418.141 28.7344 417.953 29.7188 417.922 30.6875C417.891 31.5 417.891 32.2969 417.922 33.0781C417.953 33.8594 417.953 34.6562 417.922 35.4688C417.859 36.4688 417.703 37.4062 417.453 38.2812C417.609 39.0312 417.75 39.8281 417.875 40.6719C418 41.4844 418.156 42.2969 418.344 43.1094C418.531 43.9219 418.75 44.7188 419 45.5C419.281 46.25 419.641 46.9688 420.078 47.6562C420.047 47.7188 420.062 47.7656 420.125 47.7969C420.188 47.8281 420.25 47.8438 420.312 47.8438H420.688C420.844 47.8438 420.906 47.9062 420.875 48.0312C420.938 48.125 420.984 48.2188 421.016 48.3125C421.047 48.375 421.109 48.4375 421.203 48.5C421.266 48.5938 421.266 48.7188 421.203 48.875C421.172 49.5 421.016 50.0781 420.734 50.6094C420.453 51.1406 420.281 51.7188 420.219 52.3438C419.844 52.4375 419.5 52.4844 419.188 52.4844C418.656 52.4531 418.188 52.2969 417.781 52.0156C417.375 51.7656 417 51.4531 416.656 51.0781C416.312 50.7031 415.984 50.3281 415.672 49.9531C415.359 49.5469 415.016 49.2031 414.641 48.9219C414.422 48.0469 414.203 47.0781 413.984 46.0156C413.797 44.9531 413.469 44.0469 413 43.2969C413.125 43.0156 413.188 42.6719 413.188 42.2656C413.219 41.6406 413.156 41.0312 413 40.4375C412.875 39.8125 412.844 39.1875 412.906 38.5625C412.906 38.2188 412.938 37.875 413 37.5312C413.094 37.1875 413.156 36.8438 413.188 36.5C413.219 35.9688 413.156 35.4531 413 34.9531C412.875 34.4531 412.828 33.9375 412.859 33.4062C412.891 33.1562 412.938 32.9219 413 32.7031C413.094 32.4531 413.219 32.2344 413.375 32.0469C413.219 31.6719 413.172 31.3125 413.234 30.9688C413.266 30.4375 413.328 29.9375 413.422 29.4688C413.516 29 413.578 28.5312 413.609 28.0625C413.609 27.8125 413.594 27.5781 413.562 27.3594C413.531 27.1094 413.484 26.875 413.422 26.6562L413 26.5156C412.812 26.5156 412.625 26.5625 412.438 26.6562C412.281 26.75 412.141 26.8594 412.016 26.9844C411.891 27.1094 411.781 27.2188 411.688 27.3125C411.594 27.375 411.5 27.4062 411.406 27.4062C411.344 27.4062 411.266 27.4062 411.172 27.4062C411.109 27.375 411.047 27.3594 410.984 27.3594C410.922 27.3594 410.797 27.4219 410.609 27.5469C410.453 27.6719 410.25 27.8125 410 27.9688C409.781 28.0938 409.562 28.2344 409.344 28.3906C409.125 28.5156 408.953 28.5938 408.828 28.625C408.484 28.5625 408.203 28.4531 407.984 28.2969C407.797 28.1094 407.609 27.9375 407.422 27.7812C407.266 27.5938 407.094 27.4375 406.906 27.3125C406.719 27.1562 406.484 27.0938 406.203 27.125C406.109 26.9375 406.062 26.7344 406.062 26.5156C406.031 26.2969 406.031 26.0781 406.062 25.8594V25.1094C406.281 24.7031 406.578 24.375 406.953 24.125C407.297 23.8438 407.672 23.6094 408.078 23.4219L409.297 22.8594C409.703 22.6719 410.078 22.4375 410.422 22.1562H410.844C411.406 22.1875 411.891 22.0781 412.297 21.8281C412.734 21.5781 413.141 21.2969 413.516 20.9844C413.891 20.6406 414.266 20.2969 414.641 19.9531C415.047 19.6094 415.484 19.3438 415.953 19.1562C416.297 19.3125 416.656 19.4531 417.031 19.5781C417.406 19.6719 417.797 19.7344 418.203 19.7656C418.609 19.7656 419.031 19.7031 419.469 19.5781C419.906 19.4531 420.25 19.2188 420.5 18.875C420.656 18.9375 420.781 18.9844 420.875 19.0156C421 19.0156 421.141 19.0156 421.297 19.0156C421.766 19.0469 422.234 18.9844 422.703 18.8281C423.172 18.6406 423.625 18.4219 424.062 18.1719C424.688 18.2031 425.297 18.1719 425.891 18.0781C426.516 17.9531 427.125 17.8281 427.719 17.7031C428.344 17.5781 428.953 17.4688 429.547 17.375C430.172 17.25 430.797 17.2031 431.422 17.2344C432.453 17.2656 433.469 17.1719 434.469 16.9531C435.469 16.7344 436.484 16.6562 437.516 16.7188C438.234 16.75 438.938 16.8125 439.625 16.9062C440.344 16.9688 441.062 16.9844 441.781 16.9531C442.188 17.1406 442.547 17.3125 442.859 17.4688C443.203 17.5938 443.625 17.625 444.125 17.5625C445.125 18.4062 446.031 19.3906 446.844 20.5156V21.3125C446.812 22.0312 446.688 22.7344 446.469 23.4219C446.25 24.1094 445.984 24.7969 445.672 25.4844C445.391 26.1406 445.078 26.7969 444.734 27.4531C444.391 28.0781 444.062 28.7031 443.75 29.3281C441.719 31.1719 439.688 33 437.656 34.8125C435.625 36.625 433.531 38.375 431.375 40.0625C431.312 40.375 431.219 40.6562 431.094 40.9062C431 41.1562 430.938 41.4219 430.906 41.7031C430.906 41.8594 430.922 41.9844 430.953 42.0781C431.172 42.1406 431.359 42.2656 431.516 42.4531C431.703 42.6094 431.766 42.8281 431.703 43.1094H432.125C432.281 43.1094 432.359 43.1719 432.359 43.2969L433.109 43.3438C434.297 43.4062 435.484 43.375 436.672 43.25C437.859 43.125 439.047 42.9844 440.234 42.8281C441.453 42.6719 442.656 42.5312 443.844 42.4062C445.031 42.25 446.219 42.1562 447.406 42.125C447.688 42.0312 447.984 41.9531 448.297 41.8906C448.609 41.8281 448.891 41.7031 449.141 41.5156H449.281C449.5 41.5156 449.656 41.5781 449.75 41.7031C449.875 41.8281 450.047 41.9062 450.266 41.9375C450.422 41.9375 450.578 41.9062 450.734 41.8438C450.922 41.7812 451.109 41.7344 451.297 41.7031C451.734 41.5781 452.188 41.5 452.656 41.4688C453.156 41.4375 453.641 41.3906 454.109 41.3281C455.922 41.1719 457.719 41.0781 459.5 41.0469C461.281 40.9844 463.062 40.75 464.844 40.3438C465 40.5625 465.219 40.7188 465.5 40.8125C465.781 40.875 466.078 40.9531 466.391 41.0469C466.703 41.1094 466.984 41.1875 467.234 41.2812C467.516 41.375 467.703 41.5625 467.797 41.8438ZM477.828 44.0938C477.828 44.625 477.688 45.0938 477.406 45.5C477.156 45.875 477.062 46.3438 477.125 46.9062C476.688 47.1562 476.328 47.4844 476.047 47.8906C475.766 48.2969 475.5 48.7188 475.25 49.1562C473.188 50.5 470.969 51.5781 468.594 52.3906C466.25 53.2344 463.828 53.6562 461.328 53.6562C461.172 53.6562 461.031 53.5781 460.906 53.4219C460.781 53.2969 460.656 53.1562 460.531 53C460.406 52.8438 460.266 52.6875 460.109 52.5312C459.984 52.4062 459.828 52.3438 459.641 52.3438C459.422 52.3438 459.25 52.3906 459.125 52.4844C459.125 52.4219 459.125 52.3594 459.125 52.2969C459.156 52.2656 459.172 52.2188 459.172 52.1562C459.172 51.7812 459.125 51.3906 459.031 50.9844C458.938 50.6094 458.891 50.2344 458.891 49.8594C458.891 49.4219 458.969 49.0625 459.125 48.7812H459.688C460 48.7812 460.297 48.7656 460.578 48.7344C460.891 48.6719 461.219 48.6406 461.562 48.6406C461.906 48.6406 462.219 48.7344 462.5 48.9219C464.219 48.8594 465.844 48.5469 467.375 47.9844C468.938 47.3906 470.516 46.8125 472.109 46.25C472.359 45.9062 472.5 45.5312 472.531 45.125C472.594 44.6875 472.719 44.2812 472.906 43.9062C472.094 43.2188 471.266 42.6875 470.422 42.3125C469.609 41.9062 468.656 41.7656 467.562 41.8906C466.906 41.4844 466.203 41.25 465.453 41.1875C464.734 41.125 464 41.0312 463.25 40.9062C463.062 40.875 462.859 40.8438 462.641 40.8125C462.453 40.75 462.25 40.7188 462.031 40.7188C461.875 40.7188 461.719 40.7656 461.562 40.8594C461.438 40.9219 461.406 41.0312 461.469 41.1875C461.312 40.9375 461.094 40.7969 460.812 40.7656C460.562 40.7031 460.344 40.5781 460.156 40.3906C459.156 40.3281 458.281 40.1562 457.531 39.875C456.781 39.5625 455.953 39.2188 455.047 38.8438C454.797 38.75 454.547 38.6875 454.297 38.6562C454.078 38.5938 453.859 38.5 453.641 38.375C453.078 38.0938 452.625 37.7188 452.281 37.25C451.938 36.7812 451.672 36.2656 451.484 35.7031C451.266 35.1094 451.109 34.5 451.016 33.875C450.922 33.25 450.828 32.6719 450.734 32.1406C451.016 31.6406 451.281 31.125 451.531 30.5938C451.75 30.0625 451.938 29.5 452.094 28.9062C452.281 28.8125 452.469 28.7344 452.656 28.6719C452.844 28.6094 453.047 28.5312 453.266 28.4375C453.234 28.375 453.219 28.2969 453.219 28.2031C453.219 28.0469 453.266 27.8906 453.359 27.7344C453.484 27.5781 453.516 27.4219 453.453 27.2656C454.141 26.6406 454.797 26 455.422 25.3438C456.078 24.6562 456.641 23.9062 457.109 23.0938C457.578 22.9375 457.953 22.7031 458.234 22.3906C458.516 22.0781 458.797 21.7656 459.078 21.4531C459.359 21.1094 459.672 20.8125 460.016 20.5625C460.359 20.2812 460.797 20.1094 461.328 20.0469C461.453 19.8281 461.625 19.6562 461.844 19.5312C462.062 19.375 462.281 19.2344 462.5 19.1094C462.719 18.9844 462.922 18.8438 463.109 18.6875C463.297 18.5312 463.438 18.3125 463.531 18.0312C464.031 18.0312 464.484 17.9375 464.891 17.75C465.328 17.5625 465.75 17.3594 466.156 17.1406C466.562 16.9219 466.969 16.7188 467.375 16.5312C467.812 16.3438 468.281 16.25 468.781 16.25C468.906 16.25 469.031 16.2656 469.156 16.2969C469.281 16.2969 469.422 16.3125 469.578 16.3438C469.797 16.5625 469.938 16.8281 470 17.1406C470.094 17.4219 470.156 17.7344 470.188 18.0781C470.219 18.4219 470.234 18.7656 470.234 19.1094C470.266 19.4531 470.328 19.7656 470.422 20.0469C470.141 20.5781 469.828 21.1094 469.484 21.6406C469.172 22.1719 468.75 22.5781 468.219 22.8594H468.125C467.906 22.8906 467.703 22.8438 467.516 22.7188C467.328 22.5938 467.109 22.5312 466.859 22.5312C466.703 22.5312 466.578 22.5781 466.484 22.6719L466.25 22.9062C466.188 22.9688 466.094 23.0312 465.969 23.0938C465.875 23.1562 465.734 23.1562 465.547 23.0938C465.109 23.25 464.938 23.5156 465.031 23.8906C464.438 23.9531 463.938 24.1406 463.531 24.4531C463.125 24.7344 462.75 25.0625 462.406 25.4375C462.062 25.7812 461.719 26.1094 461.375 26.4219C461.031 26.7031 460.625 26.8594 460.156 26.8906C459.625 27.8281 458.969 28.6562 458.188 29.375C457.438 30.0938 456.812 30.9062 456.312 31.8125C456.406 32.0625 456.469 32.3281 456.5 32.6094C456.531 32.8906 456.578 33.1875 456.641 33.5C456.922 33.875 457.25 34.2031 457.625 34.4844C458.031 34.7656 458.422 35.0469 458.797 35.3281H458.938C459.562 35.3281 460.141 35.4531 460.672 35.7031C461.203 35.9219 461.766 36.0312 462.359 36.0312C462.672 36.0312 462.938 35.9688 463.156 35.8438C463.969 36.0312 464.766 36.1875 465.547 36.3125C466.359 36.4375 467.172 36.5312 467.984 36.5938C468.391 36.6562 468.797 36.6875 469.203 36.6875C469.641 36.6875 470.047 36.7344 470.422 36.8281C470.766 36.9219 471.109 37.0469 471.453 37.2031C471.797 37.3281 472.141 37.4688 472.484 37.625C473.203 37.9375 473.875 38.2812 474.5 38.6562C475.156 39.0312 475.734 39.4844 476.234 40.0156C476.734 40.5156 477.125 41.1094 477.406 41.7969C477.688 42.4531 477.828 43.2188 477.828 44.0938Z" fill="white"/>
</svg>
