<svg width="179" height="35" viewBox="0 0 179 35" fill="none" xmlns="http://www.w3.org/2000/svg">
<path d="M18.152 26.46C17.336 26.628 16.292 26.76 15.02 26.856C13.772 26.976 12.584 27.036 11.456 27.036C8.288 27.036 5.948 26.664 4.436 25.92C2.948 25.152 1.952 23.904 1.448 22.176C0.967997 20.448 0.727997 17.844 0.727997 14.364C0.727997 10.884 0.967997 8.292 1.448 6.588C1.928 4.86 2.924 3.612 4.436 2.844C5.948 2.076 8.288 1.692 11.456 1.692C12.56 1.692 13.724 1.764 14.948 1.908C16.172 2.028 17.192 2.184 18.008 2.376V7.596C15.464 7.38 13.868 7.272 13.22 7.272C11.492 7.272 10.304 7.416 9.656 7.704C9.008 7.992 8.6 8.568 8.432 9.432C8.288 10.296 8.216 11.94 8.216 14.364C8.216 16.788 8.288 18.432 8.432 19.296C8.6 20.16 9.008 20.736 9.656 21.024C10.304 21.312 11.492 21.456 13.22 21.456C14.876 21.456 16.52 21.348 18.152 21.132V26.46Z" fill="white"/>
<path d="M29.4304 34.164C28.2784 34.164 27.0904 34.116 25.8664 34.02C24.6424 33.924 23.6464 33.804 22.8784 33.66V29.16H27.7384C29.2504 29.16 30.2824 29.1 30.8344 28.98C31.3864 28.86 31.7344 28.596 31.8784 28.188C32.0224 27.78 32.0944 27.012 32.0944 25.884V24.192H31.7704C30.7864 25.776 29.1424 26.568 26.8384 26.568C25.3024 26.568 24.1384 26.304 23.3464 25.776C22.5784 25.224 22.0624 24.456 21.7984 23.472C21.5584 22.464 21.4384 21.108 21.4384 19.404V8.388H28.2424V17.604C28.2424 18.78 28.2784 19.596 28.3504 20.052C28.4224 20.484 28.5784 20.76 28.8184 20.88C29.0584 21 29.4904 21.06 30.1144 21.06C30.7624 21.06 31.2064 20.988 31.4464 20.844C31.7104 20.676 31.8784 20.364 31.9504 19.908C32.0464 19.452 32.0944 18.672 32.0944 17.568V8.388H38.8984V24.732C38.8984 27.156 38.7064 28.992 38.3224 30.24C37.9624 31.512 37.1104 32.484 35.7664 33.156C34.4224 33.828 32.3104 34.164 29.4304 34.164Z" fill="white"/>
<path d="M54.6976 27.036C53.5456 27.036 52.5496 26.868 51.7096 26.532C50.8696 26.196 50.1976 25.56 49.6936 24.624H49.3336L49.1896 26.748H42.6376V0H49.4416V10.26H49.7656C50.3176 9.42 50.9896 8.856 51.7816 8.568C52.5736 8.28 53.5336 8.136 54.6616 8.136C56.0776 8.136 57.1936 8.424 58.0096 9C58.8496 9.552 59.4616 10.512 59.8456 11.88C60.2536 13.248 60.4576 15.168 60.4576 17.64C60.4576 20.112 60.2536 22.032 59.8456 23.4C59.4616 24.744 58.8496 25.692 58.0096 26.244C57.1936 26.772 56.0896 27.036 54.6976 27.036ZM51.5296 21.564C52.2736 21.564 52.7776 21.492 53.0416 21.348C53.3056 21.204 53.4736 20.892 53.5456 20.412C53.6176 19.908 53.6536 18.96 53.6536 17.568C53.6536 16.176 53.6176 15.24 53.5456 14.76C53.4736 14.256 53.3056 13.932 53.0416 13.788C52.7776 13.644 52.2736 13.572 51.5296 13.572C50.9776 13.572 50.5696 13.632 50.3056 13.752C50.0416 13.848 49.8496 14.076 49.7296 14.436C49.6096 14.748 49.5256 15.144 49.4776 15.624C49.4536 16.08 49.4416 16.728 49.4416 17.568C49.4416 18.408 49.4536 19.068 49.4776 19.548C49.5256 20.004 49.6096 20.388 49.7296 20.7C49.8496 21.036 50.0416 21.264 50.3056 21.384C50.5696 21.504 50.9776 21.564 51.5296 21.564Z" fill="white"/>
<path d="M80.4011 19.008H69.7811C69.7811 20.04 69.8651 20.748 70.0331 21.132C70.2011 21.516 70.5611 21.768 71.1131 21.888C71.6891 22.008 72.7331 22.068 74.2451 22.068C75.3251 22.068 77.1371 21.972 79.6811 21.78V26.352C78.9371 26.544 77.8931 26.7 76.5491 26.82C75.2291 26.964 73.9211 27.036 72.6251 27.036C69.6731 27.036 67.5251 26.736 66.1811 26.136C64.8611 25.512 64.0211 24.588 63.6611 23.364C63.3011 22.116 63.1211 20.196 63.1211 17.604C63.1211 15.036 63.2891 13.128 63.6251 11.88C63.9851 10.608 64.7771 9.66 66.0011 9.036C67.2491 8.412 69.2291 8.1 71.9411 8.1C74.6771 8.1 76.6331 8.4 77.8091 9C78.9851 9.576 79.7051 10.464 79.9691 11.664C80.2571 12.864 80.4011 14.844 80.4011 17.604V19.008ZM71.9411 12.672C71.2691 12.672 70.7891 12.744 70.5011 12.888C70.2371 13.008 70.0571 13.284 69.9611 13.716C69.8651 14.148 69.8051 14.904 69.7811 15.984H74.0651C74.0651 14.904 74.0171 14.148 73.9211 13.716C73.8251 13.26 73.6331 12.972 73.3451 12.852C73.0811 12.732 72.6131 12.672 71.9411 12.672Z" fill="white"/>
<path d="M83.7001 8.388H90.2521L90.3961 11.484H90.7201C91.2241 10.212 91.9081 9.336 92.7721 8.856C93.6361 8.352 94.8241 8.1 96.3361 8.1V14.22C94.8001 14.22 93.6241 14.388 92.8081 14.724C91.9921 15.06 91.4041 15.66 91.0441 16.524C90.6841 17.388 90.5041 18.648 90.5041 20.304V26.748H83.7001V8.388Z" fill="white"/>
<path d="M120.27 26.748V11.988H119.946L115.662 26.748H110.73L106.482 11.988H106.158V26.748H99.2459V1.98H109.398L113.178 14.796H113.466L117.246 1.98H127.362V26.748H120.27Z" fill="white"/>
<path d="M148.147 19.008H137.527C137.527 20.04 137.611 20.748 137.779 21.132C137.947 21.516 138.307 21.768 138.859 21.888C139.435 22.008 140.479 22.068 141.991 22.068C143.071 22.068 144.883 21.972 147.427 21.78V26.352C146.683 26.544 145.639 26.7 144.295 26.82C142.975 26.964 141.667 27.036 140.371 27.036C137.419 27.036 135.271 26.736 133.927 26.136C132.607 25.512 131.767 24.588 131.407 23.364C131.047 22.116 130.867 20.196 130.867 17.604C130.867 15.036 131.035 13.128 131.371 11.88C131.731 10.608 132.523 9.66 133.747 9.036C134.995 8.412 136.975 8.1 139.687 8.1C142.423 8.1 144.379 8.4 145.555 9C146.731 9.576 147.451 10.464 147.715 11.664C148.003 12.864 148.147 14.844 148.147 17.604V19.008ZM139.687 12.672C139.015 12.672 138.535 12.744 138.247 12.888C137.983 13.008 137.803 13.284 137.707 13.716C137.611 14.148 137.551 14.904 137.527 15.984H141.811C141.811 14.904 141.763 14.148 141.667 13.716C141.571 13.26 141.379 12.972 141.091 12.852C140.827 12.732 140.359 12.672 139.687 12.672Z" fill="white"/>
<path d="M155.874 27.036C154.17 27.036 152.886 26.592 152.022 25.704C151.182 24.816 150.762 23.4 150.762 21.456C150.762 20.016 150.918 18.9 151.23 18.108C151.566 17.316 152.154 16.752 152.994 16.416C153.834 16.056 155.046 15.876 156.63 15.876C157.71 15.876 159.258 15.924 161.274 16.02V15.372C161.274 14.604 161.178 14.076 160.986 13.788C160.818 13.476 160.47 13.284 159.942 13.212C159.438 13.14 158.502 13.104 157.134 13.104C155.526 13.104 153.738 13.176 151.77 13.32V8.712C154.17 8.304 156.666 8.1 159.258 8.1C161.922 8.1 163.878 8.376 165.126 8.928C166.374 9.48 167.178 10.272 167.538 11.304C167.898 12.336 168.078 13.836 168.078 15.804V26.748H161.49L161.346 24.66H161.022C160.35 25.644 159.606 26.292 158.79 26.604C157.998 26.892 157.026 27.036 155.874 27.036ZM159.078 22.428C159.606 22.428 160.014 22.368 160.302 22.248C160.614 22.128 160.842 21.912 160.986 21.6C161.178 21.24 161.274 20.64 161.274 19.8V18.972H158.934C158.358 18.972 157.95 19.02 157.71 19.116C157.47 19.188 157.302 19.344 157.206 19.584C157.134 19.824 157.098 20.232 157.098 20.808C157.098 21.264 157.134 21.6 157.206 21.816C157.302 22.032 157.482 22.188 157.746 22.284C158.01 22.38 158.454 22.428 159.078 22.428Z" fill="white"/>
<path d="M171.837 26.748V0H178.749V26.748H171.837Z" fill="white"/>
</svg>
